<?xml version="1.0" encoding="UTF-8"?>
<svg xmlns="http://www.w3.org/2000/svg" xmlns:xlink="http://www.w3.org/1999/xlink" width="280.155pt" height="85.2664pt" viewBox="0 0 280.155 85.2664">
<path fill-rule="nonzero" fill="rgb(100%, 100%, 100%)" fill-opacity="1" d="M 30.277344 62.371094 C 26.21875 62.371094 22.925781 59.082031 22.925781 55.023438 L 22.925781 36.648438 C 22.925781 34.621094 24.570312 32.976562 26.601562 32.976562 C 28.628906 32.976562 30.277344 34.621094 30.277344 36.648438 Z M 30.277344 62.371094 "/>
<path fill-rule="nonzero" fill="rgb(100%, 100%, 100%)" fill-opacity="1" d="M 102.542969 62.371094 C 98.484375 62.371094 95.195312 59.082031 95.195312 55.023438 L 95.195312 36.648438 C 95.195312 34.621094 96.839844 32.976562 98.871094 32.976562 C 100.898438 32.976562 102.542969 34.621094 102.542969 36.648438 Z M 102.542969 62.371094 "/>
<path fill-rule="nonzero" fill="rgb(100%, 100%, 100%)" fill-opacity="1" d="M 57.222656 62.371094 C 55.195312 62.371094 53.550781 60.726562 53.550781 58.699219 L 53.550781 32.976562 C 57.609375 32.976562 60.898438 36.265625 60.898438 40.324219 L 60.898438 58.699219 C 60.898438 60.726562 59.253906 62.371094 57.222656 62.371094 "/>
<path fill-rule="nonzero" fill="rgb(100%, 100%, 100%)" fill-opacity="1" d="M 87.847656 62.371094 C 85.816406 62.371094 84.171875 60.726562 84.171875 58.699219 L 84.171875 25.605469 C 84.171875 23.578125 85.816406 21.933594 87.847656 21.933594 C 89.875 21.933594 91.519531 23.578125 91.519531 25.605469 L 91.519531 58.699219 C 91.519531 60.726562 89.875 62.371094 87.847656 62.371094 "/>
<path fill-rule="nonzero" fill="rgb(100%, 100%, 100%)" fill-opacity="1" d="M 68.25 62.371094 C 66.21875 62.371094 64.574219 60.726562 64.574219 58.699219 L 64.574219 36.648438 C 64.574219 34.621094 66.21875 32.976562 68.25 32.976562 C 70.277344 32.976562 71.921875 34.621094 71.921875 36.648438 L 71.921875 58.699219 C 71.921875 60.726562 70.277344 62.371094 68.25 62.371094 "/>
<path fill-rule="nonzero" fill="rgb(90.830994%, 21.563721%, 20.387268%)" fill-opacity="1" d="M 78.046875 62.371094 C 76.027344 62.371094 74.371094 60.71875 74.371094 58.699219 C 74.371094 56.675781 76.027344 55.023438 78.046875 55.023438 C 80.066406 55.023438 81.722656 56.675781 81.722656 58.699219 C 81.722656 60.71875 80.066406 62.371094 78.046875 62.371094 "/>
<path fill-rule="nonzero" fill="rgb(100%, 100%, 100%)" fill-opacity="1" d="M 110.824219 61.472656 C 111.308594 61.984375 111.832031 62.351562 112.34375 62.351562 L 112.34375 36.785156 C 112.34375 34.773438 110.792969 33.015625 108.78125 32.960938 C 106.703125 32.894531 104.992188 34.566406 104.992188 36.632812 L 104.992188 62.351562 C 105.628906 62.351562 106.238281 61.953125 106.773438 61.410156 C 107.902344 60.257812 109.71875 60.300781 110.824219 61.472656 "/>
<path fill-rule="nonzero" fill="rgb(100%, 100%, 100%)" fill-opacity="1" d="M 68.25 29.28125 C 66.226562 29.28125 64.574219 27.628906 64.574219 25.609375 C 64.574219 23.585938 66.226562 21.933594 68.25 21.933594 C 70.269531 21.933594 71.921875 23.585938 71.921875 25.609375 C 71.921875 27.628906 70.269531 29.28125 68.25 29.28125 "/>
<path fill-rule="nonzero" fill="rgb(100%, 100%, 100%)" fill-opacity="1" d="M 38.554688 61.492188 C 39.039062 62.003906 39.566406 62.371094 40.074219 62.371094 L 40.074219 36.804688 C 40.074219 34.792969 38.523438 33.039062 36.515625 32.976562 C 34.433594 32.914062 32.726562 34.582031 32.726562 36.652344 L 32.726562 62.371094 C 33.359375 62.371094 33.96875 61.972656 34.507812 61.425781 C 35.632812 60.28125 37.449219 60.320312 38.554688 61.492188 "/>
<path fill-rule="nonzero" fill="rgb(100%, 100%, 100%)" fill-opacity="1" d="M 45.269531 33.855469 C 44.785156 33.34375 44.261719 32.976562 43.75 32.976562 L 43.75 58.542969 C 43.75 60.554688 45.300781 62.3125 47.3125 62.371094 C 49.390625 62.433594 51.101562 60.765625 51.101562 58.695312 L 51.101562 32.976562 C 50.464844 32.976562 49.855469 33.375 49.320312 33.921875 C 48.191406 35.070312 46.375 35.027344 45.269531 33.855469 "/>
<path fill-rule="nonzero" fill="rgb(100%, 100%, 100%)" fill-opacity="1" d="M 123.863281 31.304688 C 123.832031 31.273438 123.816406 31.238281 123.816406 31.195312 L 123.816406 22.472656 C 123.816406 22.429688 123.832031 22.390625 123.863281 22.359375 C 123.890625 22.332031 123.929688 22.316406 123.972656 22.316406 L 125.160156 22.316406 C 125.203125 22.316406 125.238281 22.332031 125.269531 22.359375 C 125.300781 22.390625 125.3125 22.429688 125.3125 22.472656 L 125.3125 31.195312 C 125.3125 31.238281 125.300781 31.273438 125.269531 31.304688 C 125.238281 31.335938 125.203125 31.347656 125.160156 31.347656 L 123.972656 31.347656 C 123.929688 31.347656 123.890625 31.335938 123.863281 31.304688 "/>
<path fill-rule="nonzero" fill="rgb(100%, 100%, 100%)" fill-opacity="1" d="M 131.886719 25.273438 C 132.304688 25.683594 132.511719 26.25 132.511719 26.960938 L 132.511719 31.195312 C 132.511719 31.238281 132.5 31.273438 132.46875 31.304688 C 132.4375 31.335938 132.402344 31.347656 132.359375 31.347656 L 131.171875 31.347656 C 131.128906 31.347656 131.09375 31.335938 131.0625 31.304688 C 131.03125 31.273438 131.015625 31.238281 131.015625 31.195312 L 131.015625 27.273438 C 131.015625 26.875 130.90625 26.554688 130.679688 26.3125 C 130.457031 26.066406 130.160156 25.941406 129.789062 25.941406 C 129.421875 25.941406 129.121094 26.0625 128.894531 26.304688 C 128.667969 26.542969 128.550781 26.863281 128.550781 27.257812 L 128.550781 31.195312 C 128.550781 31.238281 128.539062 31.273438 128.507812 31.304688 C 128.476562 31.335938 128.441406 31.347656 128.398438 31.347656 L 127.210938 31.347656 C 127.167969 31.347656 127.132812 31.335938 127.101562 31.304688 C 127.070312 31.273438 127.054688 31.238281 127.054688 31.195312 L 127.054688 24.910156 C 127.054688 24.867188 127.070312 24.832031 127.101562 24.800781 C 127.132812 24.769531 127.167969 24.753906 127.210938 24.753906 L 128.398438 24.753906 C 128.441406 24.753906 128.476562 24.769531 128.507812 24.800781 C 128.539062 24.832031 128.550781 24.867188 128.550781 24.910156 L 128.550781 25.324219 C 128.550781 25.347656 128.5625 25.367188 128.578125 25.375 C 128.59375 25.382812 128.609375 25.375 128.617188 25.347656 C 128.96875 24.882812 129.503906 24.652344 130.21875 24.652344 C 130.914062 24.652344 131.46875 24.859375 131.886719 25.273438 "/>
<path fill-rule="nonzero" fill="rgb(100%, 100%, 100%)" fill-opacity="1" d="M 137.527344 25.921875 C 137.496094 25.953125 137.460938 25.96875 137.417969 25.96875 L 136.101562 25.96875 C 136.058594 25.96875 136.035156 25.988281 136.035156 26.035156 L 136.035156 29.144531 C 136.035156 29.46875 136.109375 29.707031 136.25 29.851562 C 136.390625 30 136.617188 30.070312 136.925781 30.070312 L 137.316406 30.070312 C 137.355469 30.070312 137.394531 30.085938 137.425781 30.117188 C 137.453125 30.148438 137.46875 30.183594 137.46875 30.226562 L 137.46875 31.195312 C 137.46875 31.289062 137.417969 31.34375 137.316406 31.363281 L 136.644531 31.375 C 135.964844 31.375 135.457031 31.257812 135.121094 31.027344 C 134.785156 30.792969 134.613281 30.355469 134.605469 29.710938 L 134.605469 26.035156 C 134.605469 25.988281 134.582031 25.96875 134.539062 25.96875 L 133.804688 25.96875 C 133.761719 25.96875 133.726562 25.953125 133.695312 25.921875 C 133.664062 25.894531 133.648438 25.855469 133.648438 25.8125 L 133.648438 24.910156 C 133.648438 24.867188 133.664062 24.832031 133.695312 24.800781 C 133.726562 24.769531 133.761719 24.753906 133.804688 24.753906 L 134.539062 24.753906 C 134.582031 24.753906 134.605469 24.734375 134.605469 24.691406 L 134.605469 23.179688 C 134.605469 23.136719 134.617188 23.101562 134.648438 23.070312 C 134.679688 23.042969 134.714844 23.027344 134.757812 23.027344 L 135.882812 23.027344 C 135.925781 23.027344 135.960938 23.042969 135.992188 23.070312 C 136.023438 23.101562 136.035156 23.136719 136.035156 23.179688 L 136.035156 24.691406 C 136.035156 24.734375 136.058594 24.753906 136.101562 24.753906 L 137.417969 24.753906 C 137.460938 24.753906 137.496094 24.769531 137.527344 24.800781 C 137.558594 24.832031 137.574219 24.867188 137.574219 24.910156 L 137.574219 25.8125 C 137.574219 25.855469 137.558594 25.894531 137.527344 25.921875 "/>
<path fill-rule="nonzero" fill="rgb(100%, 100%, 100%)" fill-opacity="1" d="M 140.675781 26.179688 C 140.464844 26.339844 140.316406 26.5625 140.230469 26.847656 C 140.179688 26.992188 140.144531 27.183594 140.128906 27.414062 C 140.109375 27.457031 140.128906 27.476562 140.179688 27.476562 L 142.796875 27.476562 C 142.839844 27.476562 142.863281 27.457031 142.863281 27.414062 C 142.847656 27.199219 142.820312 27.035156 142.785156 26.925781 C 142.707031 26.613281 142.554688 26.371094 142.328125 26.203125 C 142.097656 26.027344 141.8125 25.941406 141.46875 25.941406 C 141.152344 25.941406 140.886719 26.023438 140.675781 26.179688 M 144.386719 28.035156 L 144.371094 28.433594 C 144.371094 28.535156 144.320312 28.585938 144.21875 28.585938 L 140.179688 28.585938 C 140.136719 28.585938 140.113281 28.609375 140.113281 28.652344 C 140.140625 28.9375 140.179688 29.128906 140.230469 29.234375 C 140.4375 29.851562 140.941406 30.167969 141.742188 30.175781 C 142.324219 30.175781 142.789062 29.933594 143.132812 29.453125 C 143.167969 29.402344 143.210938 29.375 143.261719 29.375 C 143.296875 29.375 143.328125 29.386719 143.351562 29.414062 L 144.152344 30.070312 C 144.230469 30.132812 144.242188 30.199219 144.191406 30.277344 C 143.925781 30.65625 143.570312 30.949219 143.125 31.15625 C 142.683594 31.363281 142.191406 31.464844 141.648438 31.464844 C 140.980469 31.464844 140.410156 31.316406 139.941406 31.015625 C 139.472656 30.710938 139.128906 30.292969 138.914062 29.75 C 138.714844 29.285156 138.617188 28.640625 138.617188 27.8125 C 138.617188 27.316406 138.667969 26.910156 138.773438 26.601562 C 138.945312 26 139.269531 25.523438 139.746094 25.175781 C 140.222656 24.824219 140.796875 24.652344 141.46875 24.652344 C 143.164062 24.652344 144.117188 25.539062 144.332031 27.3125 C 144.367188 27.527344 144.386719 27.765625 144.386719 28.035156 "/>
<path fill-rule="nonzero" fill="rgb(100%, 100%, 100%)" fill-opacity="1" d="M 149.546875 24.847656 C 149.613281 24.878906 149.640625 24.945312 149.625 25.039062 L 149.402344 26.203125 C 149.394531 26.304688 149.335938 26.335938 149.222656 26.292969 C 149.09375 26.25 148.945312 26.226562 148.773438 26.226562 C 148.660156 26.226562 148.574219 26.230469 148.515625 26.238281 C 148.152344 26.257812 147.851562 26.382812 147.609375 26.621094 C 147.371094 26.855469 147.25 27.164062 147.25 27.542969 L 147.25 31.195312 C 147.25 31.238281 147.234375 31.273438 147.207031 31.304688 C 147.171875 31.335938 147.136719 31.351562 147.09375 31.351562 L 145.90625 31.351562 C 145.863281 31.351562 145.828125 31.335938 145.796875 31.304688 C 145.765625 31.273438 145.753906 31.238281 145.753906 31.195312 L 145.753906 24.910156 C 145.753906 24.867188 145.765625 24.832031 145.796875 24.800781 C 145.828125 24.769531 145.863281 24.753906 145.90625 24.753906 L 147.09375 24.753906 C 147.136719 24.753906 147.171875 24.769531 147.207031 24.800781 C 147.234375 24.832031 147.25 24.867188 147.25 24.910156 L 147.25 25.492188 C 147.25 25.527344 147.253906 25.542969 147.269531 25.546875 C 147.28125 25.554688 147.296875 25.542969 147.3125 25.515625 C 147.675781 24.957031 148.179688 24.679688 148.824219 24.679688 C 149.097656 24.679688 149.339844 24.734375 149.546875 24.847656 "/>
<path fill-rule="nonzero" fill="rgb(100%, 100%, 100%)" fill-opacity="1" d="M 154.554688 28.046875 C 154.554688 27.375 154.445312 26.863281 154.230469 26.511719 C 154 26.132812 153.671875 25.941406 153.25 25.941406 C 152.8125 25.941406 152.46875 26.125 152.21875 26.484375 C 151.960938 26.863281 151.832031 27.386719 151.832031 28.058594 C 151.832031 28.660156 151.933594 29.15625 152.140625 29.542969 C 152.382812 29.957031 152.746094 30.160156 153.238281 30.160156 C 153.675781 30.160156 154.015625 29.957031 154.257812 29.542969 C 154.453125 29.191406 154.554688 28.691406 154.554688 28.046875 M 154.613281 22.363281 C 154.640625 22.332031 154.675781 22.316406 154.722656 22.316406 L 155.90625 22.316406 C 155.949219 22.316406 155.988281 22.332031 156.019531 22.363281 C 156.046875 22.390625 156.0625 22.429688 156.0625 22.472656 L 156.0625 31.195312 C 156.0625 31.238281 156.046875 31.273438 156.019531 31.304688 C 155.988281 31.335938 155.949219 31.351562 155.90625 31.351562 L 154.722656 31.351562 C 154.675781 31.351562 154.640625 31.335938 154.613281 31.304688 C 154.582031 31.273438 154.566406 31.238281 154.566406 31.195312 L 154.566406 30.808594 C 154.566406 30.78125 154.558594 30.765625 154.539062 30.757812 C 154.523438 30.746094 154.507812 30.757812 154.488281 30.78125 C 154.109375 31.230469 153.617188 31.453125 153.003906 31.453125 C 152.394531 31.453125 151.878906 31.292969 151.457031 30.976562 C 151.035156 30.65625 150.730469 30.214844 150.539062 29.648438 C 150.386719 29.164062 150.308594 28.625 150.308594 28.035156 C 150.308594 27.421875 150.378906 26.898438 150.527344 26.457031 C 150.714844 25.890625 151.019531 25.449219 151.445312 25.128906 C 151.863281 24.8125 152.394531 24.652344 153.03125 24.652344 C 153.625 24.652344 154.109375 24.867188 154.488281 25.296875 C 154.507812 25.316406 154.523438 25.320312 154.539062 25.316406 C 154.558594 25.3125 154.566406 25.296875 154.566406 25.273438 L 154.566406 22.472656 C 154.566406 22.429688 154.582031 22.390625 154.613281 22.363281 "/>
<path fill-rule="nonzero" fill="rgb(100%, 100%, 100%)" fill-opacity="1" d="M 157.8125 31.304688 C 157.78125 31.273438 157.765625 31.238281 157.765625 31.195312 L 157.765625 24.898438 C 157.765625 24.855469 157.78125 24.816406 157.8125 24.789062 C 157.839844 24.757812 157.878906 24.742188 157.921875 24.742188 L 159.109375 24.742188 C 159.152344 24.742188 159.1875 24.757812 159.21875 24.789062 C 159.246094 24.816406 159.261719 24.855469 159.261719 24.898438 L 159.261719 31.195312 C 159.261719 31.238281 159.246094 31.273438 159.21875 31.304688 C 159.1875 31.335938 159.152344 31.347656 159.109375 31.347656 L 157.921875 31.347656 C 157.878906 31.347656 157.839844 31.335938 157.8125 31.304688 M 157.882812 23.59375 C 157.707031 23.421875 157.625 23.203125 157.625 22.9375 C 157.625 22.667969 157.707031 22.449219 157.882812 22.277344 C 158.054688 22.105469 158.273438 22.019531 158.539062 22.019531 C 158.804688 22.019531 159.027344 22.105469 159.199219 22.277344 C 159.371094 22.449219 159.457031 22.667969 159.457031 22.9375 C 159.457031 23.203125 159.371094 23.421875 159.199219 23.59375 C 159.027344 23.765625 158.804688 23.851562 158.539062 23.851562 C 158.273438 23.851562 158.054688 23.765625 157.882812 23.59375 "/>
<path fill-rule="nonzero" fill="rgb(100%, 100%, 100%)" fill-opacity="1" d="M 162.003906 31.1875 C 161.597656 31.027344 161.28125 30.808594 161.054688 30.53125 C 160.832031 30.25 160.722656 29.9375 160.722656 29.59375 L 160.722656 29.476562 C 160.722656 29.433594 160.734375 29.398438 160.765625 29.367188 C 160.796875 29.339844 160.832031 29.324219 160.875 29.324219 L 162.011719 29.324219 C 162.054688 29.324219 162.089844 29.339844 162.121094 29.367188 C 162.152344 29.398438 162.164062 29.433594 162.164062 29.476562 L 162.164062 29.503906 C 162.164062 29.71875 162.285156 29.90625 162.523438 30.066406 C 162.757812 30.222656 163.058594 30.304688 163.417969 30.304688 C 163.761719 30.304688 164.042969 30.234375 164.257812 30.089844 C 164.472656 29.949219 164.582031 29.769531 164.582031 29.554688 C 164.582031 29.359375 164.492188 29.210938 164.3125 29.109375 C 164.136719 29.011719 163.851562 28.90625 163.457031 28.792969 L 162.96875 28.640625 C 162.527344 28.511719 162.15625 28.375 161.859375 28.226562 C 161.554688 28.082031 161.300781 27.878906 161.09375 27.625 C 160.890625 27.371094 160.785156 27.046875 160.785156 26.652344 C 160.785156 26.050781 161.023438 25.570312 161.496094 25.214844 C 161.96875 24.855469 162.59375 24.679688 163.367188 24.679688 C 163.890625 24.679688 164.351562 24.761719 164.746094 24.929688 C 165.140625 25.097656 165.449219 25.328125 165.664062 25.628906 C 165.878906 25.921875 165.984375 26.261719 165.984375 26.640625 C 165.984375 26.683594 165.972656 26.71875 165.941406 26.75 C 165.910156 26.777344 165.875 26.792969 165.832031 26.792969 L 164.734375 26.792969 C 164.691406 26.792969 164.65625 26.777344 164.625 26.75 C 164.59375 26.71875 164.582031 26.683594 164.582031 26.640625 C 164.582031 26.417969 164.46875 26.230469 164.25 26.078125 C 164.03125 25.925781 163.730469 25.851562 163.351562 25.851562 C 163.015625 25.851562 162.746094 25.914062 162.535156 26.039062 C 162.324219 26.164062 162.21875 26.339844 162.21875 26.5625 C 162.21875 26.769531 162.320312 26.925781 162.523438 27.03125 C 162.722656 27.140625 163.058594 27.257812 163.535156 27.386719 L 163.816406 27.464844 C 164.273438 27.601562 164.65625 27.742188 164.964844 27.882812 C 165.277344 28.027344 165.539062 28.226562 165.753906 28.476562 C 165.96875 28.730469 166.074219 29.058594 166.074219 29.464844 C 166.074219 30.074219 165.835938 30.554688 165.351562 30.902344 C 164.871094 31.253906 164.230469 31.425781 163.429688 31.425781 C 162.890625 31.425781 162.414062 31.347656 162.003906 31.1875 "/>
<path fill-rule="nonzero" fill="rgb(100%, 100%, 100%)" fill-opacity="1" d="M 168.371094 30.941406 C 167.890625 30.605469 167.554688 30.144531 167.367188 29.570312 C 167.230469 29.183594 167.160156 28.664062 167.160156 28.019531 C 167.160156 27.402344 167.230469 26.894531 167.367188 26.496094 C 167.546875 25.929688 167.878906 25.480469 168.367188 25.148438 C 168.851562 24.820312 169.425781 24.652344 170.089844 24.652344 C 170.761719 24.652344 171.34375 24.820312 171.84375 25.15625 C 172.34375 25.492188 172.675781 25.914062 172.839844 26.417969 C 172.878906 26.558594 172.910156 26.695312 172.929688 26.832031 L 172.929688 26.859375 C 172.929688 26.945312 172.878906 26.996094 172.785156 27.011719 L 171.625 27.183594 L 171.597656 27.183594 C 171.519531 27.183594 171.46875 27.136719 171.445312 27.050781 C 171.445312 27.007812 171.441406 26.976562 171.429688 26.949219 C 171.414062 26.878906 171.394531 26.820312 171.378906 26.769531 C 171.300781 26.527344 171.148438 26.332031 170.914062 26.175781 C 170.683594 26.019531 170.40625 25.941406 170.089844 25.941406 C 169.761719 25.941406 169.484375 26.027344 169.257812 26.195312 C 169.027344 26.363281 168.875 26.59375 168.796875 26.882812 C 168.710938 27.160156 168.667969 27.542969 168.667969 28.03125 C 168.667969 28.503906 168.707031 28.890625 168.785156 29.183594 C 168.871094 29.480469 169.027344 29.722656 169.25 29.898438 C 169.472656 30.074219 169.753906 30.164062 170.089844 30.164062 C 170.414062 30.164062 170.699219 30.078125 170.933594 29.910156 C 171.171875 29.742188 171.324219 29.515625 171.390625 29.234375 C 171.402344 29.214844 171.40625 29.195312 171.40625 29.167969 C 171.414062 29.160156 171.417969 29.148438 171.417969 29.128906 C 171.445312 29.027344 171.503906 28.984375 171.597656 29 L 172.761719 29.183594 C 172.804688 29.191406 172.839844 29.210938 172.871094 29.238281 C 172.898438 29.269531 172.910156 29.3125 172.902344 29.363281 C 172.875 29.5 172.855469 29.597656 172.839844 29.660156 C 172.675781 30.210938 172.34375 30.644531 171.84375 30.96875 C 171.34375 31.292969 170.761719 31.453125 170.089844 31.453125 C 169.425781 31.453125 168.855469 31.28125 168.371094 30.941406 "/>
<path fill-rule="nonzero" fill="rgb(100%, 100%, 100%)" fill-opacity="1" d="M 174.3125 31.304688 C 174.285156 31.273438 174.269531 31.238281 174.269531 31.195312 L 174.269531 24.898438 C 174.269531 24.855469 174.285156 24.816406 174.3125 24.789062 C 174.34375 24.757812 174.382812 24.742188 174.421875 24.742188 L 175.609375 24.742188 C 175.65625 24.742188 175.691406 24.757812 175.722656 24.789062 C 175.75 24.816406 175.765625 24.855469 175.765625 24.898438 L 175.765625 31.195312 C 175.765625 31.238281 175.75 31.273438 175.722656 31.304688 C 175.691406 31.335938 175.65625 31.347656 175.609375 31.347656 L 174.421875 31.347656 C 174.382812 31.347656 174.34375 31.335938 174.3125 31.304688 M 174.386719 23.59375 C 174.210938 23.421875 174.128906 23.203125 174.128906 22.9375 C 174.128906 22.667969 174.210938 22.449219 174.386719 22.277344 C 174.558594 22.105469 174.777344 22.019531 175.042969 22.019531 C 175.308594 22.019531 175.53125 22.105469 175.703125 22.277344 C 175.871094 22.449219 175.960938 22.667969 175.960938 22.9375 C 175.960938 23.203125 175.871094 23.421875 175.703125 23.59375 C 175.53125 23.765625 175.308594 23.851562 175.042969 23.851562 C 174.777344 23.851562 174.558594 23.765625 174.386719 23.59375 "/>
<path fill-rule="nonzero" fill="rgb(100%, 100%, 100%)" fill-opacity="1" d="M 181.777344 28.046875 C 181.777344 27.417969 181.675781 26.925781 181.46875 26.5625 C 181.226562 26.140625 180.863281 25.929688 180.371094 25.929688 C 179.925781 25.929688 179.589844 26.136719 179.367188 26.550781 C 179.167969 26.886719 179.070312 27.382812 179.070312 28.046875 C 179.070312 28.726562 179.175781 29.242188 179.390625 29.59375 C 179.613281 29.972656 179.9375 30.160156 180.359375 30.160156 C 180.816406 30.160156 181.160156 29.980469 181.390625 29.621094 C 181.648438 29.222656 181.777344 28.699219 181.777344 28.046875 M 183.300781 28.070312 C 183.300781 28.683594 183.226562 29.207031 183.082031 29.648438 C 182.894531 30.214844 182.589844 30.65625 182.171875 30.976562 C 181.753906 31.292969 181.226562 31.453125 180.589844 31.453125 C 179.980469 31.453125 179.488281 31.234375 179.121094 30.792969 C 179.105469 30.777344 179.085938 30.773438 179.070312 30.78125 C 179.050781 30.789062 179.042969 30.808594 179.042969 30.832031 L 179.042969 33.632812 C 179.042969 33.675781 179.027344 33.710938 178.996094 33.742188 C 178.96875 33.773438 178.929688 33.789062 178.886719 33.789062 L 177.703125 33.789062 C 177.65625 33.789062 177.621094 33.773438 177.589844 33.742188 C 177.5625 33.710938 177.546875 33.675781 177.546875 33.632812 L 177.546875 24.910156 C 177.546875 24.867188 177.5625 24.832031 177.589844 24.800781 C 177.621094 24.769531 177.65625 24.753906 177.703125 24.753906 L 178.886719 24.753906 C 178.929688 24.753906 178.96875 24.769531 178.996094 24.800781 C 179.027344 24.832031 179.042969 24.867188 179.042969 24.910156 L 179.042969 25.296875 C 179.042969 25.324219 179.050781 25.339844 179.070312 25.347656 C 179.085938 25.359375 179.105469 25.347656 179.121094 25.324219 C 179.5 24.875 179.992188 24.652344 180.605469 24.652344 C 181.214844 24.652344 181.730469 24.8125 182.152344 25.128906 C 182.574219 25.449219 182.878906 25.890625 183.070312 26.457031 C 183.222656 26.898438 183.300781 27.4375 183.300781 28.070312 "/>
<path fill-rule="nonzero" fill="rgb(100%, 100%, 100%)" fill-opacity="1" d="M 184.792969 31.304688 C 184.761719 31.273438 184.746094 31.238281 184.746094 31.195312 L 184.746094 22.472656 C 184.746094 22.429688 184.761719 22.390625 184.792969 22.359375 C 184.820312 22.332031 184.859375 22.316406 184.902344 22.316406 L 186.089844 22.316406 C 186.132812 22.316406 186.167969 22.332031 186.199219 22.359375 C 186.226562 22.390625 186.242188 22.429688 186.242188 22.472656 L 186.242188 31.195312 C 186.242188 31.238281 186.226562 31.273438 186.199219 31.304688 C 186.167969 31.335938 186.132812 31.347656 186.089844 31.347656 L 184.902344 31.347656 C 184.859375 31.347656 184.820312 31.335938 184.792969 31.304688 "/>
<path fill-rule="nonzero" fill="rgb(100%, 100%, 100%)" fill-opacity="1" d="M 187.953125 31.304688 C 187.925781 31.273438 187.910156 31.238281 187.910156 31.195312 L 187.910156 24.898438 C 187.910156 24.855469 187.925781 24.816406 187.953125 24.789062 C 187.984375 24.757812 188.019531 24.742188 188.0625 24.742188 L 189.25 24.742188 C 189.292969 24.742188 189.328125 24.757812 189.359375 24.789062 C 189.390625 24.816406 189.40625 24.855469 189.40625 24.898438 L 189.40625 31.195312 C 189.40625 31.238281 189.390625 31.273438 189.359375 31.304688 C 189.328125 31.335938 189.292969 31.347656 189.25 31.347656 L 188.0625 31.347656 C 188.019531 31.347656 187.984375 31.335938 187.953125 31.304688 M 188.023438 23.59375 C 187.851562 23.421875 187.765625 23.203125 187.765625 22.9375 C 187.765625 22.667969 187.851562 22.449219 188.023438 22.277344 C 188.195312 22.105469 188.414062 22.019531 188.683594 22.019531 C 188.949219 22.019531 189.167969 22.105469 189.339844 22.277344 C 189.511719 22.449219 189.597656 22.667969 189.597656 22.9375 C 189.597656 23.203125 189.511719 23.421875 189.339844 23.59375 C 189.167969 23.765625 188.949219 23.851562 188.683594 23.851562 C 188.414062 23.851562 188.195312 23.765625 188.023438 23.59375 "/>
<path fill-rule="nonzero" fill="rgb(100%, 100%, 100%)" fill-opacity="1" d="M 195.953125 25.273438 C 196.371094 25.683594 196.578125 26.25 196.578125 26.960938 L 196.578125 31.195312 C 196.578125 31.238281 196.5625 31.273438 196.535156 31.304688 C 196.503906 31.335938 196.46875 31.347656 196.425781 31.347656 L 195.238281 31.347656 C 195.195312 31.347656 195.15625 31.335938 195.128906 31.304688 C 195.097656 31.273438 195.082031 31.238281 195.082031 31.195312 L 195.082031 27.273438 C 195.082031 26.875 194.972656 26.554688 194.746094 26.3125 C 194.523438 26.066406 194.226562 25.941406 193.859375 25.941406 C 193.488281 25.941406 193.1875 26.0625 192.960938 26.304688 C 192.730469 26.542969 192.617188 26.863281 192.617188 27.257812 L 192.617188 31.195312 C 192.617188 31.238281 192.601562 31.273438 192.574219 31.304688 C 192.542969 31.335938 192.507812 31.347656 192.460938 31.347656 L 191.277344 31.347656 C 191.234375 31.347656 191.195312 31.335938 191.167969 31.304688 C 191.136719 31.273438 191.121094 31.238281 191.121094 31.195312 L 191.121094 24.910156 C 191.121094 24.867188 191.136719 24.832031 191.167969 24.800781 C 191.195312 24.769531 191.234375 24.753906 191.277344 24.753906 L 192.460938 24.753906 C 192.507812 24.753906 192.542969 24.769531 192.574219 24.800781 C 192.601562 24.832031 192.617188 24.867188 192.617188 24.910156 L 192.617188 25.324219 C 192.617188 25.347656 192.628906 25.367188 192.644531 25.375 C 192.660156 25.382812 192.671875 25.375 192.683594 25.347656 C 193.035156 24.882812 193.570312 24.652344 194.28125 24.652344 C 194.980469 24.652344 195.535156 24.859375 195.953125 25.273438 "/>
<path fill-rule="nonzero" fill="rgb(100%, 100%, 100%)" fill-opacity="1" d="M 201.429688 29.929688 C 201.734375 29.707031 201.882812 29.421875 201.882812 29.078125 L 201.882812 28.472656 C 201.882812 28.429688 201.863281 28.40625 201.816406 28.40625 L 200.734375 28.40625 C 200.277344 28.40625 199.917969 28.492188 199.65625 28.664062 C 199.394531 28.835938 199.261719 29.082031 199.261719 29.402344 C 199.261719 29.675781 199.363281 29.890625 199.566406 30.039062 C 199.769531 30.191406 200.027344 30.265625 200.347656 30.265625 C 200.769531 30.265625 201.128906 30.152344 201.429688 29.929688 M 202.089844 24.9375 C 202.503906 25.125 202.820312 25.386719 203.042969 25.71875 C 203.269531 26.046875 203.378906 26.425781 203.378906 26.847656 L 203.378906 31.195312 C 203.378906 31.238281 203.363281 31.273438 203.335938 31.304688 C 203.304688 31.335938 203.269531 31.351562 203.226562 31.351562 L 202.039062 31.351562 C 201.992188 31.351562 201.957031 31.335938 201.929688 31.304688 C 201.898438 31.273438 201.882812 31.238281 201.882812 31.195312 L 201.882812 30.78125 C 201.882812 30.757812 201.875 30.742188 201.855469 30.734375 C 201.839844 30.730469 201.824219 30.738281 201.804688 30.757812 C 201.382812 31.21875 200.773438 31.453125 199.972656 31.453125 C 199.328125 31.453125 198.796875 31.289062 198.378906 30.960938 C 197.960938 30.636719 197.753906 30.148438 197.753906 29.503906 C 197.753906 28.832031 197.988281 28.3125 198.457031 27.9375 C 198.925781 27.5625 199.585938 27.375 200.4375 27.375 L 201.816406 27.375 C 201.863281 27.375 201.882812 27.351562 201.882812 27.308594 L 201.882812 27 C 201.882812 26.667969 201.785156 26.40625 201.585938 26.21875 C 201.386719 26.035156 201.089844 25.941406 200.695312 25.941406 C 200.367188 25.941406 200.105469 26 199.902344 26.117188 C 199.699219 26.234375 199.574219 26.394531 199.519531 26.601562 C 199.496094 26.703125 199.433594 26.746094 199.339844 26.730469 L 198.089844 26.574219 C 198.046875 26.566406 198.011719 26.550781 197.980469 26.53125 C 197.949219 26.507812 197.9375 26.480469 197.945312 26.445312 C 198.015625 25.921875 198.296875 25.492188 198.792969 25.15625 C 199.285156 24.820312 199.910156 24.652344 200.65625 24.652344 C 201.199219 24.652344 201.675781 24.746094 202.089844 24.9375 "/>
<path fill-rule="nonzero" fill="rgb(100%, 100%, 100%)" fill-opacity="1" d="M 208.667969 24.847656 C 208.738281 24.878906 208.765625 24.945312 208.746094 25.039062 L 208.527344 26.203125 C 208.519531 26.304688 208.460938 26.335938 208.347656 26.292969 C 208.21875 26.25 208.066406 26.226562 207.894531 26.226562 C 207.78125 26.226562 207.699219 26.230469 207.636719 26.238281 C 207.277344 26.257812 206.976562 26.382812 206.734375 26.621094 C 206.492188 26.855469 206.371094 27.164062 206.371094 27.542969 L 206.371094 31.195312 C 206.371094 31.238281 206.359375 31.273438 206.328125 31.304688 C 206.296875 31.335938 206.261719 31.351562 206.21875 31.351562 L 205.03125 31.351562 C 204.988281 31.351562 204.953125 31.335938 204.921875 31.304688 C 204.890625 31.273438 204.875 31.238281 204.875 31.195312 L 204.875 24.910156 C 204.875 24.867188 204.890625 24.832031 204.921875 24.800781 C 204.953125 24.769531 204.988281 24.753906 205.03125 24.753906 L 206.21875 24.753906 C 206.261719 24.753906 206.296875 24.769531 206.328125 24.800781 C 206.359375 24.832031 206.371094 24.867188 206.371094 24.910156 L 206.371094 25.492188 C 206.371094 25.527344 206.378906 25.542969 206.390625 25.546875 C 206.40625 25.554688 206.417969 25.542969 206.4375 25.515625 C 206.796875 24.957031 207.300781 24.679688 207.945312 24.679688 C 208.222656 24.679688 208.464844 24.734375 208.667969 24.847656 "/>
<path fill-rule="nonzero" fill="rgb(100%, 100%, 100%)" fill-opacity="1" d="M 209.753906 33.871094 C 209.734375 33.839844 209.726562 33.804688 209.726562 33.761719 L 209.726562 32.832031 C 209.726562 32.789062 209.742188 32.753906 209.773438 32.722656 C 209.800781 32.691406 209.839844 32.679688 209.882812 32.679688 L 209.894531 32.679688 C 210.246094 32.667969 210.523438 32.632812 210.722656 32.570312 C 210.917969 32.503906 211.082031 32.382812 211.210938 32.199219 C 211.339844 32.019531 211.457031 31.75 211.558594 31.386719 C 211.566406 31.371094 211.566406 31.34375 211.558594 31.3125 L 209.429688 24.921875 C 209.421875 24.90625 209.417969 24.882812 209.417969 24.859375 C 209.417969 24.78125 209.460938 24.742188 209.546875 24.742188 L 210.808594 24.742188 C 210.90625 24.742188 210.964844 24.785156 210.992188 24.871094 L 212.28125 29.414062 C 212.289062 29.4375 212.304688 29.453125 212.320312 29.453125 C 212.335938 29.453125 212.351562 29.4375 212.359375 29.414062 L 213.648438 24.871094 C 213.675781 24.785156 213.738281 24.742188 213.832031 24.742188 L 215.058594 24.742188 C 215.109375 24.742188 215.144531 24.757812 215.167969 24.789062 C 215.1875 24.816406 215.1875 24.863281 215.171875 24.921875 L 212.902344 31.710938 C 212.6875 32.320312 212.476562 32.777344 212.269531 33.078125 C 212.0625 33.378906 211.78125 33.59375 211.425781 33.722656 C 211.066406 33.851562 210.5625 33.917969 209.90625 33.917969 L 209.816406 33.917969 C 209.792969 33.917969 209.769531 33.902344 209.753906 33.871094 "/>
<path fill-rule="nonzero" fill="rgb(100%, 100%, 100%)" fill-opacity="1" d="M 220.296875 31.070312 C 219.804688 30.816406 219.425781 30.464844 219.160156 30.007812 C 218.894531 29.550781 218.761719 29.023438 218.761719 28.421875 L 218.761719 25.234375 C 218.761719 24.628906 218.894531 24.101562 219.160156 23.644531 C 219.425781 23.191406 219.804688 22.835938 220.296875 22.589844 C 220.785156 22.339844 221.355469 22.214844 222 22.214844 C 222.636719 22.214844 223.199219 22.335938 223.691406 22.574219 C 224.179688 22.816406 224.558594 23.15625 224.824219 23.59375 C 225.089844 24.03125 225.226562 24.542969 225.226562 25.117188 C 225.226562 25.160156 225.210938 25.195312 225.179688 25.226562 C 225.148438 25.257812 225.113281 25.273438 225.070312 25.273438 L 223.882812 25.335938 C 223.78125 25.335938 223.726562 25.289062 223.726562 25.195312 C 223.726562 24.6875 223.570312 24.277344 223.257812 23.96875 C 222.941406 23.660156 222.523438 23.503906 222 23.503906 C 221.472656 23.503906 221.054688 23.660156 220.734375 23.96875 C 220.417969 24.277344 220.257812 24.6875 220.257812 25.195312 L 220.257812 28.484375 C 220.257812 28.984375 220.417969 29.386719 220.734375 29.699219 C 221.054688 30.007812 221.472656 30.164062 222 30.164062 C 222.523438 30.164062 222.941406 30.011719 223.257812 29.703125 C 223.570312 29.398438 223.726562 28.992188 223.726562 28.484375 C 223.726562 28.390625 223.78125 28.34375 223.882812 28.34375 L 225.070312 28.394531 C 225.113281 28.394531 225.148438 28.40625 225.179688 28.433594 C 225.210938 28.460938 225.226562 28.488281 225.226562 28.523438 C 225.226562 29.109375 225.089844 29.621094 224.824219 30.066406 C 224.558594 30.507812 224.179688 30.851562 223.691406 31.09375 C 223.199219 31.332031 222.636719 31.453125 222 31.453125 C 221.355469 31.453125 220.785156 31.324219 220.296875 31.070312 "/>
<path fill-rule="nonzero" fill="rgb(100%, 100%, 100%)" fill-opacity="1" d="M 228.574219 26.179688 C 228.363281 26.339844 228.214844 26.5625 228.128906 26.847656 C 228.078125 26.992188 228.042969 27.183594 228.023438 27.414062 C 228.007812 27.457031 228.023438 27.476562 228.078125 27.476562 L 230.695312 27.476562 C 230.738281 27.476562 230.761719 27.457031 230.761719 27.414062 C 230.742188 27.199219 230.714844 27.035156 230.683594 26.925781 C 230.605469 26.613281 230.453125 26.371094 230.226562 26.203125 C 229.996094 26.027344 229.710938 25.941406 229.367188 25.941406 C 229.046875 25.941406 228.785156 26.023438 228.574219 26.179688 M 232.28125 28.035156 L 232.269531 28.433594 C 232.269531 28.535156 232.21875 28.585938 232.113281 28.585938 L 228.078125 28.585938 C 228.03125 28.585938 228.011719 28.609375 228.011719 28.652344 C 228.039062 28.9375 228.078125 29.128906 228.128906 29.234375 C 228.335938 29.851562 228.835938 30.167969 229.636719 30.175781 C 230.222656 30.175781 230.6875 29.933594 231.03125 29.453125 C 231.066406 29.402344 231.109375 29.375 231.160156 29.375 C 231.195312 29.375 231.226562 29.386719 231.25 29.414062 L 232.050781 30.070312 C 232.128906 30.132812 232.140625 30.199219 232.089844 30.277344 C 231.820312 30.65625 231.46875 30.949219 231.023438 31.15625 C 230.582031 31.363281 230.089844 31.464844 229.546875 31.464844 C 228.875 31.464844 228.304688 31.316406 227.835938 31.015625 C 227.367188 30.710938 227.027344 30.292969 226.8125 29.75 C 226.613281 29.285156 226.515625 28.640625 226.515625 27.8125 C 226.515625 27.316406 226.566406 26.910156 226.667969 26.601562 C 226.84375 26 227.167969 25.523438 227.644531 25.175781 C 228.121094 24.824219 228.695312 24.652344 229.367188 24.652344 C 231.0625 24.652344 232.015625 25.539062 232.230469 27.3125 C 232.265625 27.527344 232.28125 27.765625 232.28125 28.035156 "/>
<path fill-rule="nonzero" fill="rgb(100%, 100%, 100%)" fill-opacity="1" d="M 238.484375 25.273438 C 238.902344 25.683594 239.109375 26.25 239.109375 26.960938 L 239.109375 31.195312 C 239.109375 31.238281 239.09375 31.273438 239.0625 31.304688 C 239.035156 31.335938 238.996094 31.347656 238.953125 31.347656 L 237.765625 31.347656 C 237.722656 31.347656 237.6875 31.335938 237.65625 31.304688 C 237.628906 31.273438 237.613281 31.238281 237.613281 31.195312 L 237.613281 27.273438 C 237.613281 26.875 237.5 26.554688 237.277344 26.3125 C 237.054688 26.066406 236.757812 25.941406 236.386719 25.941406 C 236.015625 25.941406 235.71875 26.0625 235.488281 26.304688 C 235.261719 26.542969 235.148438 26.863281 235.148438 27.257812 L 235.148438 31.195312 C 235.148438 31.238281 235.132812 31.273438 235.101562 31.304688 C 235.074219 31.335938 235.035156 31.347656 234.992188 31.347656 L 233.804688 31.347656 C 233.761719 31.347656 233.726562 31.335938 233.695312 31.304688 C 233.667969 31.273438 233.652344 31.238281 233.652344 31.195312 L 233.652344 24.910156 C 233.652344 24.867188 233.667969 24.832031 233.695312 24.800781 C 233.726562 24.769531 233.761719 24.753906 233.804688 24.753906 L 234.992188 24.753906 C 235.035156 24.753906 235.074219 24.769531 235.101562 24.800781 C 235.132812 24.832031 235.148438 24.867188 235.148438 24.910156 L 235.148438 25.324219 C 235.148438 25.347656 235.15625 25.367188 235.171875 25.375 C 235.191406 25.382812 235.203125 25.375 235.210938 25.347656 C 235.566406 24.882812 236.097656 24.652344 236.8125 24.652344 C 237.507812 24.652344 238.066406 24.859375 238.484375 25.273438 "/>
<path fill-rule="nonzero" fill="rgb(100%, 100%, 100%)" fill-opacity="1" d="M 244.121094 25.921875 C 244.09375 25.953125 244.054688 25.96875 244.011719 25.96875 L 242.699219 25.96875 C 242.652344 25.96875 242.632812 25.988281 242.632812 26.035156 L 242.632812 29.144531 C 242.632812 29.46875 242.703125 29.707031 242.84375 29.851562 C 242.984375 30 243.210938 30.070312 243.523438 30.070312 L 243.910156 30.070312 C 243.953125 30.070312 243.988281 30.085938 244.019531 30.117188 C 244.050781 30.148438 244.0625 30.183594 244.0625 30.226562 L 244.0625 31.195312 C 244.0625 31.289062 244.011719 31.34375 243.910156 31.363281 L 243.238281 31.375 C 242.558594 31.375 242.050781 31.257812 241.714844 31.027344 C 241.378906 30.792969 241.207031 30.355469 241.199219 29.710938 L 241.199219 26.035156 C 241.199219 25.988281 241.175781 25.96875 241.132812 25.96875 L 240.398438 25.96875 C 240.355469 25.96875 240.320312 25.953125 240.289062 25.921875 C 240.257812 25.894531 240.246094 25.855469 240.246094 25.8125 L 240.246094 24.910156 C 240.246094 24.867188 240.257812 24.832031 240.289062 24.800781 C 240.320312 24.769531 240.355469 24.753906 240.398438 24.753906 L 241.132812 24.753906 C 241.175781 24.753906 241.199219 24.734375 241.199219 24.691406 L 241.199219 23.179688 C 241.199219 23.136719 241.214844 23.101562 241.246094 23.070312 C 241.273438 23.042969 241.3125 23.027344 241.355469 23.027344 L 242.476562 23.027344 C 242.519531 23.027344 242.554688 23.042969 242.585938 23.070312 C 242.617188 23.101562 242.632812 23.136719 242.632812 23.179688 L 242.632812 24.691406 C 242.632812 24.734375 242.652344 24.753906 242.699219 24.753906 L 244.011719 24.753906 C 244.054688 24.753906 244.09375 24.769531 244.121094 24.800781 C 244.152344 24.832031 244.167969 24.867188 244.167969 24.910156 L 244.167969 25.8125 C 244.167969 25.855469 244.152344 25.894531 244.121094 25.921875 "/>
<path fill-rule="nonzero" fill="rgb(100%, 100%, 100%)" fill-opacity="1" d="M 249.289062 24.847656 C 249.359375 24.878906 249.382812 24.945312 249.367188 25.039062 L 249.148438 26.203125 C 249.140625 26.304688 249.078125 26.335938 248.96875 26.292969 C 248.839844 26.25 248.6875 26.226562 248.515625 26.226562 C 248.402344 26.226562 248.316406 26.230469 248.257812 26.238281 C 247.894531 26.257812 247.59375 26.382812 247.355469 26.621094 C 247.113281 26.855469 246.992188 27.164062 246.992188 27.542969 L 246.992188 31.195312 C 246.992188 31.238281 246.976562 31.273438 246.949219 31.304688 C 246.917969 31.335938 246.882812 31.351562 246.835938 31.351562 L 245.652344 31.351562 C 245.609375 31.351562 245.570312 31.335938 245.542969 31.304688 C 245.511719 31.273438 245.496094 31.238281 245.496094 31.195312 L 245.496094 24.910156 C 245.496094 24.867188 245.511719 24.832031 245.542969 24.800781 C 245.570312 24.769531 245.609375 24.753906 245.652344 24.753906 L 246.835938 24.753906 C 246.882812 24.753906 246.917969 24.769531 246.949219 24.800781 C 246.976562 24.832031 246.992188 24.867188 246.992188 24.910156 L 246.992188 25.492188 C 246.992188 25.527344 247 25.542969 247.011719 25.546875 C 247.027344 25.554688 247.039062 25.542969 247.058594 25.515625 C 247.417969 24.957031 247.921875 24.679688 248.566406 24.679688 C 248.84375 24.679688 249.082031 24.734375 249.289062 24.847656 "/>
<path fill-rule="nonzero" fill="rgb(100%, 100%, 100%)" fill-opacity="1" d="M 252.121094 26.179688 C 251.910156 26.339844 251.761719 26.5625 251.675781 26.847656 C 251.625 26.992188 251.589844 27.183594 251.574219 27.414062 C 251.554688 27.457031 251.574219 27.476562 251.625 27.476562 L 254.246094 27.476562 C 254.289062 27.476562 254.308594 27.457031 254.308594 27.414062 C 254.289062 27.199219 254.265625 27.035156 254.230469 26.925781 C 254.152344 26.613281 254 26.371094 253.773438 26.203125 C 253.546875 26.027344 253.257812 25.941406 252.914062 25.941406 C 252.597656 25.941406 252.332031 26.023438 252.121094 26.179688 M 255.832031 28.035156 L 255.820312 28.433594 C 255.820312 28.535156 255.765625 28.585938 255.664062 28.585938 L 251.625 28.585938 C 251.582031 28.585938 251.558594 28.609375 251.558594 28.652344 C 251.585938 28.9375 251.625 29.128906 251.675781 29.234375 C 251.882812 29.851562 252.386719 30.167969 253.183594 30.175781 C 253.769531 30.175781 254.234375 29.933594 254.578125 29.453125 C 254.613281 29.402344 254.65625 29.375 254.707031 29.375 C 254.742188 29.375 254.773438 29.386719 254.796875 29.414062 L 255.597656 30.070312 C 255.675781 30.132812 255.691406 30.199219 255.636719 30.277344 C 255.371094 30.65625 255.015625 30.949219 254.574219 31.15625 C 254.128906 31.363281 253.636719 31.464844 253.09375 31.464844 C 252.425781 31.464844 251.855469 31.316406 251.386719 31.015625 C 250.917969 30.710938 250.574219 30.292969 250.359375 29.75 C 250.160156 29.285156 250.0625 28.640625 250.0625 27.8125 C 250.0625 27.316406 250.117188 26.910156 250.21875 26.601562 C 250.390625 26 250.714844 25.523438 251.191406 25.175781 C 251.671875 24.824219 252.246094 24.652344 252.914062 24.652344 C 254.609375 24.652344 255.566406 25.539062 255.777344 27.3125 C 255.816406 27.527344 255.832031 27.765625 255.832031 28.035156 "/>
<path fill-rule="nonzero" fill="rgb(100%, 100%, 100%)" fill-opacity="1" d="M 127.21875 40.273438 C 127.246094 40.304688 127.261719 40.339844 127.261719 40.382812 L 127.261719 41.402344 C 127.261719 41.445312 127.246094 41.480469 127.21875 41.511719 C 127.1875 41.542969 127.152344 41.554688 127.109375 41.554688 L 125.832031 41.554688 C 125.789062 41.554688 125.765625 41.578125 125.765625 41.621094 L 125.765625 46.679688 C 125.765625 46.722656 125.75 46.757812 125.71875 46.789062 C 125.691406 46.820312 125.652344 46.832031 125.609375 46.832031 L 124.421875 46.832031 C 124.378906 46.832031 124.34375 46.820312 124.3125 46.789062 C 124.285156 46.757812 124.269531 46.722656 124.269531 46.679688 L 124.269531 41.621094 C 124.269531 41.578125 124.246094 41.554688 124.203125 41.554688 L 123.402344 41.554688 C 123.359375 41.554688 123.324219 41.542969 123.292969 41.511719 C 123.265625 41.480469 123.25 41.445312 123.25 41.402344 L 123.25 40.382812 C 123.25 40.339844 123.265625 40.304688 123.292969 40.273438 C 123.324219 40.242188 123.359375 40.226562 123.402344 40.226562 L 124.203125 40.226562 C 124.246094 40.226562 124.269531 40.207031 124.269531 40.164062 L 124.269531 39.929688 C 124.269531 39.371094 124.34375 38.9375 124.488281 38.632812 C 124.632812 38.328125 124.875 38.109375 125.210938 37.980469 C 125.546875 37.851562 126.019531 37.792969 126.628906 37.800781 L 127.082031 37.800781 C 127.125 37.800781 127.160156 37.816406 127.191406 37.847656 C 127.222656 37.875 127.238281 37.914062 127.238281 37.957031 L 127.238281 38.859375 C 127.238281 38.902344 127.222656 38.9375 127.191406 38.96875 C 127.160156 39 127.125 39.015625 127.082031 39.015625 L 126.746094 39.015625 C 126.375 39.015625 126.121094 39.085938 125.976562 39.234375 C 125.835938 39.378906 125.765625 39.648438 125.765625 40.03125 L 125.765625 40.164062 C 125.765625 40.207031 125.789062 40.226562 125.832031 40.226562 L 127.109375 40.226562 C 127.152344 40.226562 127.1875 40.242188 127.21875 40.273438 "/>
<path fill-rule="nonzero" fill="rgb(100%, 100%, 100%)" fill-opacity="1" d="M 131.683594 45.375 C 131.910156 45.195312 132.074219 44.941406 132.179688 44.613281 C 132.265625 44.332031 132.308594 43.96875 132.308594 43.53125 C 132.308594 43.066406 132.265625 42.703125 132.179688 42.445312 C 132.082031 42.121094 131.921875 41.867188 131.6875 41.691406 C 131.457031 41.515625 131.171875 41.425781 130.835938 41.425781 C 130.519531 41.425781 130.242188 41.515625 130.011719 41.691406 C 129.777344 41.867188 129.609375 42.121094 129.507812 42.445312 C 129.421875 42.75 129.378906 43.109375 129.378906 43.53125 C 129.378906 43.953125 129.421875 44.3125 129.507812 44.613281 C 129.601562 44.941406 129.765625 45.195312 130.003906 45.375 C 130.238281 45.554688 130.527344 45.644531 130.863281 45.644531 C 131.179688 45.644531 131.453125 45.554688 131.683594 45.375 M 129.113281 46.421875 C 128.628906 46.078125 128.285156 45.601562 128.085938 44.988281 C 127.941406 44.523438 127.867188 44.035156 127.867188 43.519531 C 127.867188 42.96875 127.9375 42.476562 128.074219 42.046875 C 128.273438 41.445312 128.617188 40.976562 129.109375 40.640625 C 129.597656 40.304688 130.1875 40.136719 130.875 40.136719 C 131.527344 40.136719 132.09375 40.304688 132.570312 40.640625 C 133.050781 40.976562 133.386719 41.441406 133.585938 42.035156 C 133.738281 42.445312 133.816406 42.9375 133.816406 43.503906 C 133.816406 44.046875 133.742188 44.535156 133.597656 44.976562 C 133.398438 45.585938 133.058594 46.066406 132.578125 46.414062 C 132.097656 46.761719 131.523438 46.9375 130.863281 46.9375 C 130.183594 46.9375 129.601562 46.765625 129.113281 46.421875 "/>
<path fill-rule="nonzero" fill="rgb(100%, 100%, 100%)" fill-opacity="1" d="M 139.03125 40.332031 C 139.097656 40.363281 139.125 40.429688 139.109375 40.523438 L 138.890625 41.6875 C 138.878906 41.789062 138.820312 41.820312 138.707031 41.777344 C 138.578125 41.734375 138.429688 41.710938 138.257812 41.710938 C 138.144531 41.710938 138.058594 41.714844 138 41.722656 C 137.636719 41.742188 137.335938 41.867188 137.09375 42.105469 C 136.855469 42.339844 136.734375 42.648438 136.734375 43.027344 L 136.734375 46.679688 C 136.734375 46.722656 136.71875 46.757812 136.6875 46.789062 C 136.65625 46.820312 136.621094 46.835938 136.578125 46.835938 L 135.390625 46.835938 C 135.347656 46.835938 135.3125 46.820312 135.28125 46.789062 C 135.25 46.757812 135.238281 46.722656 135.238281 46.679688 L 135.238281 40.394531 C 135.238281 40.351562 135.25 40.316406 135.28125 40.285156 C 135.3125 40.253906 135.347656 40.238281 135.390625 40.238281 L 136.578125 40.238281 C 136.621094 40.238281 136.65625 40.253906 136.6875 40.285156 C 136.71875 40.316406 136.734375 40.351562 136.734375 40.394531 L 136.734375 40.976562 C 136.734375 41.011719 136.742188 41.027344 136.753906 41.03125 C 136.765625 41.039062 136.78125 41.027344 136.796875 41 C 137.160156 40.441406 137.664062 40.164062 138.308594 40.164062 C 138.582031 40.164062 138.824219 40.21875 139.03125 40.332031 "/>
<path fill-rule="nonzero" fill="rgb(100%, 100%, 100%)" fill-opacity="1" d="M 143.972656 46.613281 C 143.472656 46.398438 143.085938 46.097656 142.816406 45.710938 C 142.546875 45.324219 142.410156 44.867188 142.410156 44.34375 L 142.410156 44.019531 C 142.410156 43.976562 142.425781 43.941406 142.457031 43.910156 C 142.484375 43.882812 142.523438 43.867188 142.566406 43.867188 L 143.714844 43.867188 C 143.757812 43.867188 143.792969 43.882812 143.824219 43.910156 C 143.855469 43.941406 143.867188 43.976562 143.867188 44.019531 L 143.867188 44.265625 C 143.867188 44.660156 144.046875 44.992188 144.398438 45.253906 C 144.75 45.515625 145.230469 45.648438 145.84375 45.648438 C 146.367188 45.648438 146.761719 45.535156 147.03125 45.3125 C 147.296875 45.085938 147.429688 44.800781 147.429688 44.445312 C 147.429688 44.207031 147.355469 44 147.210938 43.832031 C 147.0625 43.664062 146.855469 43.511719 146.585938 43.375 C 146.3125 43.238281 145.90625 43.066406 145.367188 42.859375 C 144.753906 42.636719 144.261719 42.425781 143.882812 42.226562 C 143.503906 42.027344 143.1875 41.761719 142.933594 41.421875 C 142.679688 41.082031 142.554688 40.65625 142.554688 40.148438 C 142.554688 39.394531 142.828125 38.792969 143.378906 38.355469 C 143.929688 37.917969 144.664062 37.699219 145.585938 37.699219 C 146.230469 37.699219 146.800781 37.808594 147.296875 38.035156 C 147.789062 38.257812 148.171875 38.570312 148.449219 38.96875 C 148.726562 39.367188 148.863281 39.832031 148.863281 40.355469 L 148.863281 40.574219 C 148.863281 40.617188 148.847656 40.65625 148.816406 40.6875 C 148.785156 40.714844 148.75 40.730469 148.707031 40.730469 L 147.546875 40.730469 C 147.503906 40.730469 147.46875 40.714844 147.4375 40.6875 C 147.40625 40.65625 147.390625 40.617188 147.390625 40.574219 L 147.390625 40.433594 C 147.390625 40.027344 147.226562 39.6875 146.894531 39.40625 C 146.5625 39.128906 146.105469 38.988281 145.519531 38.988281 C 145.046875 38.988281 144.679688 39.085938 144.417969 39.285156 C 144.15625 39.484375 144.023438 39.761719 144.023438 40.125 C 144.023438 40.382812 144.09375 40.59375 144.230469 40.757812 C 144.367188 40.917969 144.574219 41.066406 144.851562 41.203125 C 145.125 41.335938 145.550781 41.503906 146.128906 41.710938 C 146.738281 41.945312 147.226562 42.152344 147.589844 42.34375 C 147.957031 42.53125 148.269531 42.796875 148.535156 43.136719 C 148.796875 43.476562 148.925781 43.902344 148.925781 44.40625 C 148.925781 45.183594 148.640625 45.796875 148.070312 46.253906 C 147.496094 46.710938 146.714844 46.9375 145.726562 46.9375 C 145.054688 46.9375 144.46875 46.828125 143.972656 46.613281 "/>
<path fill-rule="nonzero" fill="rgb(100%, 100%, 100%)" fill-opacity="1" d="M 152.199219 41.664062 C 151.988281 41.824219 151.839844 42.046875 151.753906 42.332031 C 151.703125 42.476562 151.667969 42.667969 151.648438 42.898438 C 151.632812 42.941406 151.648438 42.960938 151.703125 42.960938 L 154.320312 42.960938 C 154.363281 42.960938 154.386719 42.941406 154.386719 42.898438 C 154.367188 42.683594 154.339844 42.519531 154.308594 42.410156 C 154.230469 42.097656 154.078125 41.855469 153.851562 41.6875 C 153.621094 41.511719 153.335938 41.425781 152.992188 41.425781 C 152.671875 41.425781 152.410156 41.507812 152.199219 41.664062 M 155.90625 43.519531 L 155.894531 43.917969 C 155.894531 44.019531 155.84375 44.070312 155.738281 44.070312 L 151.703125 44.070312 C 151.65625 44.070312 151.636719 44.09375 151.636719 44.136719 C 151.664062 44.421875 151.703125 44.613281 151.753906 44.71875 C 151.960938 45.335938 152.460938 45.652344 153.261719 45.660156 C 153.847656 45.660156 154.3125 45.417969 154.65625 44.9375 C 154.691406 44.886719 154.734375 44.859375 154.785156 44.859375 C 154.820312 44.859375 154.851562 44.871094 154.875 44.898438 L 155.675781 45.554688 C 155.753906 45.617188 155.765625 45.683594 155.714844 45.761719 C 155.445312 46.140625 155.09375 46.433594 154.648438 46.640625 C 154.207031 46.847656 153.714844 46.949219 153.171875 46.949219 C 152.5 46.949219 151.929688 46.800781 151.460938 46.5 C 150.992188 46.195312 150.652344 45.777344 150.4375 45.234375 C 150.238281 44.769531 150.140625 44.125 150.140625 43.296875 C 150.140625 42.800781 150.191406 42.394531 150.292969 42.085938 C 150.46875 41.484375 150.792969 41.007812 151.269531 40.660156 C 151.746094 40.3125 152.320312 40.136719 152.992188 40.136719 C 154.6875 40.136719 155.640625 41.023438 155.855469 42.796875 C 155.890625 43.011719 155.90625 43.25 155.90625 43.519531 "/>
<path fill-rule="nonzero" fill="rgb(100%, 100%, 100%)" fill-opacity="1" d="M 158.308594 46.425781 C 157.828125 46.089844 157.492188 45.628906 157.300781 45.054688 C 157.164062 44.667969 157.09375 44.148438 157.09375 43.503906 C 157.09375 42.886719 157.164062 42.378906 157.300781 41.980469 C 157.484375 41.414062 157.816406 40.964844 158.300781 40.632812 C 158.789062 40.304688 159.363281 40.136719 160.023438 40.136719 C 160.695312 40.136719 161.28125 40.304688 161.777344 40.640625 C 162.277344 40.976562 162.609375 41.398438 162.773438 41.902344 C 162.816406 42.042969 162.84375 42.179688 162.863281 42.316406 L 162.863281 42.34375 C 162.863281 42.429688 162.816406 42.480469 162.71875 42.496094 L 161.558594 42.667969 L 161.535156 42.667969 C 161.457031 42.667969 161.40625 42.621094 161.378906 42.535156 C 161.378906 42.492188 161.375 42.460938 161.367188 42.433594 C 161.347656 42.363281 161.332031 42.304688 161.316406 42.253906 C 161.238281 42.011719 161.082031 41.816406 160.851562 41.660156 C 160.617188 41.503906 160.34375 41.425781 160.023438 41.425781 C 159.695312 41.425781 159.421875 41.511719 159.191406 41.679688 C 158.964844 41.847656 158.8125 42.078125 158.734375 42.367188 C 158.648438 42.644531 158.605469 43.027344 158.605469 43.515625 C 158.605469 43.988281 158.644531 44.375 158.722656 44.667969 C 158.808594 44.964844 158.960938 45.207031 159.1875 45.382812 C 159.410156 45.558594 159.6875 45.648438 160.023438 45.648438 C 160.351562 45.648438 160.632812 45.5625 160.871094 45.394531 C 161.105469 45.226562 161.257812 45 161.328125 44.71875 C 161.335938 44.699219 161.339844 44.679688 161.339844 44.652344 C 161.347656 44.644531 161.351562 44.632812 161.351562 44.613281 C 161.378906 44.511719 161.4375 44.46875 161.535156 44.484375 L 162.695312 44.667969 C 162.738281 44.675781 162.773438 44.695312 162.804688 44.722656 C 162.835938 44.753906 162.84375 44.796875 162.835938 44.847656 C 162.8125 44.984375 162.789062 45.082031 162.773438 45.144531 C 162.609375 45.695312 162.277344 46.128906 161.777344 46.453125 C 161.28125 46.777344 160.695312 46.9375 160.023438 46.9375 C 159.363281 46.9375 158.789062 46.765625 158.308594 46.425781 "/>
<path fill-rule="nonzero" fill="rgb(100%, 100%, 100%)" fill-opacity="1" d="M 168.070312 40.285156 C 168.097656 40.253906 168.132812 40.242188 168.179688 40.242188 L 169.351562 40.242188 C 169.394531 40.242188 169.433594 40.253906 169.460938 40.285156 C 169.492188 40.316406 169.507812 40.351562 169.507812 40.394531 L 169.507812 46.679688 C 169.507812 46.722656 169.492188 46.757812 169.460938 46.789062 C 169.433594 46.820312 169.394531 46.832031 169.351562 46.832031 L 168.179688 46.832031 C 168.132812 46.832031 168.097656 46.820312 168.070312 46.789062 C 168.039062 46.757812 168.023438 46.722656 168.023438 46.679688 L 168.023438 46.265625 C 168.023438 46.238281 168.015625 46.222656 167.996094 46.214844 C 167.980469 46.207031 167.964844 46.214844 167.945312 46.238281 C 167.59375 46.695312 167.0625 46.925781 166.359375 46.925781 C 165.707031 46.925781 165.15625 46.734375 164.714844 46.355469 C 164.269531 45.976562 164.050781 45.441406 164.050781 44.742188 L 164.050781 40.394531 C 164.050781 40.351562 164.066406 40.316406 164.09375 40.285156 C 164.125 40.253906 164.160156 40.242188 164.203125 40.242188 L 165.390625 40.242188 C 165.433594 40.242188 165.46875 40.253906 165.5 40.285156 C 165.53125 40.316406 165.546875 40.351562 165.546875 40.394531 L 165.546875 44.316406 C 165.546875 44.722656 165.652344 45.042969 165.863281 45.285156 C 166.074219 45.527344 166.367188 45.648438 166.746094 45.648438 C 167.132812 45.648438 167.441406 45.527344 167.675781 45.285156 C 167.90625 45.042969 168.023438 44.722656 168.023438 44.316406 L 168.023438 40.394531 C 168.023438 40.351562 168.039062 40.316406 168.070312 40.285156 "/>
<path fill-rule="nonzero" fill="rgb(100%, 100%, 100%)" fill-opacity="1" d="M 174.902344 40.332031 C 174.96875 40.363281 174.996094 40.429688 174.980469 40.523438 L 174.757812 41.6875 C 174.75 41.789062 174.691406 41.820312 174.578125 41.777344 C 174.449219 41.734375 174.300781 41.710938 174.128906 41.710938 C 174.015625 41.710938 173.929688 41.714844 173.867188 41.722656 C 173.507812 41.742188 173.207031 41.867188 172.964844 42.105469 C 172.726562 42.339844 172.605469 42.648438 172.605469 43.027344 L 172.605469 46.679688 C 172.605469 46.722656 172.589844 46.757812 172.558594 46.789062 C 172.527344 46.820312 172.492188 46.835938 172.449219 46.835938 L 171.261719 46.835938 C 171.21875 46.835938 171.183594 46.820312 171.152344 46.789062 C 171.121094 46.757812 171.109375 46.722656 171.109375 46.679688 L 171.109375 40.394531 C 171.109375 40.351562 171.121094 40.316406 171.152344 40.285156 C 171.183594 40.253906 171.21875 40.238281 171.261719 40.238281 L 172.449219 40.238281 C 172.492188 40.238281 172.527344 40.253906 172.558594 40.285156 C 172.589844 40.316406 172.605469 40.351562 172.605469 40.394531 L 172.605469 40.976562 C 172.605469 41.011719 172.609375 41.027344 172.625 41.03125 C 172.636719 41.039062 172.652344 41.027344 172.667969 41 C 173.03125 40.441406 173.535156 40.164062 174.179688 40.164062 C 174.453125 40.164062 174.695312 40.21875 174.902344 40.332031 "/>
<path fill-rule="nonzero" fill="rgb(100%, 100%, 100%)" fill-opacity="1" d="M 176.082031 46.789062 C 176.050781 46.757812 176.035156 46.722656 176.035156 46.679688 L 176.035156 40.382812 C 176.035156 40.339844 176.050781 40.300781 176.082031 40.273438 C 176.113281 40.242188 176.148438 40.226562 176.191406 40.226562 L 177.378906 40.226562 C 177.421875 40.226562 177.457031 40.242188 177.488281 40.273438 C 177.519531 40.300781 177.535156 40.339844 177.535156 40.382812 L 177.535156 46.679688 C 177.535156 46.722656 177.519531 46.757812 177.488281 46.789062 C 177.457031 46.820312 177.421875 46.832031 177.378906 46.832031 L 176.191406 46.832031 C 176.148438 46.832031 176.113281 46.820312 176.082031 46.789062 M 176.152344 39.078125 C 175.980469 38.90625 175.894531 38.6875 175.894531 38.421875 C 175.894531 38.152344 175.980469 37.933594 176.152344 37.761719 C 176.324219 37.589844 176.542969 37.503906 176.8125 37.503906 C 177.078125 37.503906 177.296875 37.589844 177.46875 37.761719 C 177.640625 37.933594 177.726562 38.152344 177.726562 38.421875 C 177.726562 38.6875 177.640625 38.90625 177.46875 39.078125 C 177.296875 39.25 177.078125 39.335938 176.8125 39.335938 C 176.542969 39.335938 176.324219 39.25 176.152344 39.078125 "/>
<path fill-rule="nonzero" fill="rgb(100%, 100%, 100%)" fill-opacity="1" d="M 182.703125 41.40625 C 182.671875 41.4375 182.632812 41.453125 182.59375 41.453125 L 181.277344 41.453125 C 181.234375 41.453125 181.210938 41.472656 181.210938 41.519531 L 181.210938 44.628906 C 181.210938 44.953125 181.28125 45.191406 181.425781 45.335938 C 181.566406 45.484375 181.792969 45.554688 182.101562 45.554688 L 182.488281 45.554688 C 182.53125 45.554688 182.566406 45.570312 182.597656 45.601562 C 182.628906 45.632812 182.644531 45.667969 182.644531 45.710938 L 182.644531 46.679688 C 182.644531 46.773438 182.59375 46.828125 182.488281 46.847656 L 181.816406 46.859375 C 181.136719 46.859375 180.628906 46.742188 180.292969 46.511719 C 179.957031 46.277344 179.789062 45.839844 179.78125 45.195312 L 179.78125 41.519531 C 179.78125 41.472656 179.757812 41.453125 179.714844 41.453125 L 178.976562 41.453125 C 178.9375 41.453125 178.898438 41.4375 178.871094 41.40625 C 178.839844 41.378906 178.824219 41.339844 178.824219 41.296875 L 178.824219 40.394531 C 178.824219 40.351562 178.839844 40.316406 178.871094 40.285156 C 178.898438 40.253906 178.9375 40.238281 178.976562 40.238281 L 179.714844 40.238281 C 179.757812 40.238281 179.78125 40.21875 179.78125 40.175781 L 179.78125 38.664062 C 179.78125 38.621094 179.792969 38.585938 179.824219 38.554688 C 179.855469 38.527344 179.890625 38.511719 179.933594 38.511719 L 181.054688 38.511719 C 181.097656 38.511719 181.136719 38.527344 181.164062 38.554688 C 181.195312 38.585938 181.210938 38.621094 181.210938 38.664062 L 181.210938 40.175781 C 181.210938 40.21875 181.234375 40.238281 181.277344 40.238281 L 182.59375 40.238281 C 182.632812 40.238281 182.671875 40.253906 182.703125 40.285156 C 182.730469 40.316406 182.746094 40.351562 182.746094 40.394531 L 182.746094 41.296875 C 182.746094 41.339844 182.730469 41.378906 182.703125 41.40625 "/>
<path fill-rule="nonzero" fill="rgb(100%, 100%, 100%)" fill-opacity="1" d="M 183.882812 49.355469 C 183.863281 49.324219 183.855469 49.289062 183.855469 49.246094 L 183.855469 48.316406 C 183.855469 48.273438 183.871094 48.238281 183.902344 48.207031 C 183.929688 48.175781 183.96875 48.164062 184.011719 48.164062 L 184.023438 48.164062 C 184.375 48.152344 184.652344 48.117188 184.851562 48.054688 C 185.046875 47.988281 185.210938 47.867188 185.339844 47.683594 C 185.46875 47.503906 185.585938 47.234375 185.6875 46.871094 C 185.695312 46.855469 185.695312 46.828125 185.6875 46.796875 L 183.558594 40.40625 C 183.550781 40.390625 183.546875 40.367188 183.546875 40.34375 C 183.546875 40.265625 183.589844 40.226562 183.675781 40.226562 L 184.9375 40.226562 C 185.035156 40.226562 185.09375 40.269531 185.121094 40.355469 L 186.410156 44.898438 C 186.417969 44.921875 186.433594 44.9375 186.449219 44.9375 C 186.464844 44.9375 186.480469 44.921875 186.488281 44.898438 L 187.777344 40.355469 C 187.804688 40.269531 187.867188 40.226562 187.960938 40.226562 L 189.1875 40.226562 C 189.238281 40.226562 189.273438 40.242188 189.296875 40.273438 C 189.316406 40.300781 189.316406 40.347656 189.300781 40.40625 L 187.03125 47.195312 C 186.816406 47.804688 186.605469 48.261719 186.398438 48.5625 C 186.191406 48.863281 185.910156 49.078125 185.554688 49.207031 C 185.195312 49.335938 184.691406 49.402344 184.035156 49.402344 L 183.945312 49.402344 C 183.921875 49.402344 183.898438 49.386719 183.882812 49.355469 "/>
<path fill-rule="nonzero" fill="rgb(100%, 100%, 100%)" fill-opacity="1" d="M 189.726562 47.839844 L 190.203125 44.949219 C 190.214844 44.855469 190.269531 44.808594 190.375 44.808594 L 191.40625 44.808594 C 191.515625 44.808594 191.5625 44.863281 191.535156 44.976562 L 190.773438 47.878906 C 190.746094 47.964844 190.6875 48.007812 190.59375 48.007812 L 189.871094 48.007812 C 189.765625 48.007812 189.71875 47.953125 189.726562 47.839844 "/>
<path fill-rule="nonzero" fill="rgb(100%, 100%, 100%)" fill-opacity="1" d="M 197.523438 39.15625 L 197.523438 41.722656 C 197.523438 41.765625 197.542969 41.789062 197.585938 41.789062 L 199.523438 41.789062 C 199.933594 41.789062 200.269531 41.664062 200.519531 41.421875 C 200.773438 41.175781 200.902344 40.851562 200.902344 40.445312 C 200.902344 40.042969 200.773438 39.714844 200.519531 39.464844 C 200.269531 39.214844 199.933594 39.089844 199.523438 39.089844 L 197.585938 39.089844 C 197.542969 39.089844 197.523438 39.113281 197.523438 39.15625 M 200.914062 46.71875 L 199.210938 43 C 199.195312 42.96875 199.167969 42.949219 199.136719 42.949219 L 197.585938 42.949219 C 197.542969 42.949219 197.523438 42.972656 197.523438 43.015625 L 197.523438 46.679688 C 197.523438 46.722656 197.507812 46.757812 197.476562 46.789062 C 197.445312 46.820312 197.410156 46.835938 197.367188 46.835938 L 196.179688 46.835938 C 196.136719 46.835938 196.101562 46.820312 196.070312 46.789062 C 196.039062 46.757812 196.023438 46.722656 196.023438 46.679688 L 196.023438 37.957031 C 196.023438 37.914062 196.039062 37.875 196.070312 37.847656 C 196.101562 37.816406 196.136719 37.800781 196.179688 37.800781 L 199.730469 37.800781 C 200.253906 37.800781 200.71875 37.910156 201.121094 38.128906 C 201.527344 38.351562 201.839844 38.660156 202.0625 39.058594 C 202.289062 39.460938 202.398438 39.917969 202.398438 40.433594 C 202.398438 41.027344 202.246094 41.53125 201.941406 41.949219 C 201.636719 42.367188 201.210938 42.65625 200.671875 42.820312 C 200.652344 42.820312 200.640625 42.828125 200.632812 42.847656 C 200.625 42.863281 200.625 42.882812 200.632812 42.898438 L 202.453125 46.652344 C 202.46875 46.6875 202.476562 46.714844 202.476562 46.730469 C 202.476562 46.800781 202.429688 46.835938 202.335938 46.835938 L 201.09375 46.835938 C 201.011719 46.835938 200.949219 46.796875 200.914062 46.71875 "/>
<path fill-rule="nonzero" fill="rgb(100%, 100%, 100%)" fill-opacity="1" d="M 205.617188 41.664062 C 205.40625 41.824219 205.257812 42.046875 205.171875 42.332031 C 205.121094 42.476562 205.085938 42.667969 205.070312 42.898438 C 205.054688 42.941406 205.070312 42.960938 205.121094 42.960938 L 207.742188 42.960938 C 207.785156 42.960938 207.804688 42.941406 207.804688 42.898438 C 207.789062 42.683594 207.761719 42.519531 207.726562 42.410156 C 207.652344 42.097656 207.5 41.855469 207.269531 41.6875 C 207.042969 41.511719 206.753906 41.425781 206.414062 41.425781 C 206.09375 41.425781 205.828125 41.507812 205.617188 41.664062 M 209.328125 43.519531 L 209.316406 43.917969 C 209.316406 44.019531 209.265625 44.070312 209.160156 44.070312 L 205.121094 44.070312 C 205.078125 44.070312 205.058594 44.09375 205.058594 44.136719 C 205.082031 44.421875 205.121094 44.613281 205.171875 44.71875 C 205.378906 45.335938 205.882812 45.652344 206.683594 45.660156 C 207.269531 45.660156 207.730469 45.417969 208.074219 44.9375 C 208.109375 44.886719 208.15625 44.859375 208.203125 44.859375 C 208.238281 44.859375 208.269531 44.871094 208.296875 44.898438 L 209.097656 45.554688 C 209.171875 45.617188 209.1875 45.683594 209.136719 45.761719 C 208.867188 46.140625 208.511719 46.433594 208.070312 46.640625 C 207.625 46.847656 207.132812 46.949219 206.59375 46.949219 C 205.921875 46.949219 205.351562 46.800781 204.882812 46.5 C 204.414062 46.195312 204.070312 45.777344 203.859375 45.234375 C 203.65625 44.769531 203.558594 44.125 203.558594 43.296875 C 203.558594 42.800781 203.613281 42.394531 203.714844 42.085938 C 203.886719 41.484375 204.210938 41.007812 204.6875 40.660156 C 205.167969 40.3125 205.742188 40.136719 206.414062 40.136719 C 208.105469 40.136719 209.0625 41.023438 209.277344 42.796875 C 209.3125 43.011719 209.328125 43.25 209.328125 43.519531 "/>
<path fill-rule="nonzero" fill="rgb(100%, 100%, 100%)" fill-opacity="1" d="M 210.742188 46.789062 C 210.710938 46.757812 210.695312 46.722656 210.695312 46.679688 L 210.695312 37.957031 C 210.695312 37.914062 210.710938 37.875 210.742188 37.847656 C 210.769531 37.816406 210.808594 37.800781 210.851562 37.800781 L 212.039062 37.800781 C 212.082031 37.800781 212.117188 37.816406 212.148438 37.847656 C 212.179688 37.875 212.191406 37.914062 212.191406 37.957031 L 212.191406 46.679688 C 212.191406 46.722656 212.179688 46.757812 212.148438 46.789062 C 212.117188 46.820312 212.082031 46.832031 212.039062 46.832031 L 210.851562 46.832031 C 210.808594 46.832031 210.769531 46.820312 210.742188 46.789062 "/>
<path fill-rule="nonzero" fill="rgb(100%, 100%, 100%)" fill-opacity="1" d="M 213.902344 46.789062 C 213.871094 46.757812 213.855469 46.722656 213.855469 46.679688 L 213.855469 40.382812 C 213.855469 40.339844 213.871094 40.300781 213.902344 40.273438 C 213.933594 40.242188 213.96875 40.226562 214.011719 40.226562 L 215.199219 40.226562 C 215.242188 40.226562 215.277344 40.242188 215.308594 40.273438 C 215.339844 40.300781 215.355469 40.339844 215.355469 40.382812 L 215.355469 46.679688 C 215.355469 46.722656 215.339844 46.757812 215.308594 46.789062 C 215.277344 46.820312 215.242188 46.832031 215.199219 46.832031 L 214.011719 46.832031 C 213.96875 46.832031 213.933594 46.820312 213.902344 46.789062 M 213.972656 39.078125 C 213.800781 38.90625 213.714844 38.6875 213.714844 38.421875 C 213.714844 38.152344 213.800781 37.933594 213.972656 37.761719 C 214.144531 37.589844 214.363281 37.503906 214.632812 37.503906 C 214.898438 37.503906 215.117188 37.589844 215.289062 37.761719 C 215.460938 37.933594 215.546875 38.152344 215.546875 38.421875 C 215.546875 38.6875 215.460938 38.90625 215.289062 39.078125 C 215.117188 39.25 214.898438 39.335938 214.632812 39.335938 C 214.363281 39.335938 214.144531 39.25 213.972656 39.078125 "/>
<path fill-rule="nonzero" fill="rgb(100%, 100%, 100%)" fill-opacity="1" d="M 220.359375 45.414062 C 220.660156 45.191406 220.8125 44.90625 220.8125 44.5625 L 220.8125 43.957031 C 220.8125 43.914062 220.789062 43.890625 220.746094 43.890625 L 219.664062 43.890625 C 219.207031 43.890625 218.847656 43.976562 218.585938 44.148438 C 218.324219 44.320312 218.191406 44.566406 218.191406 44.886719 C 218.191406 45.160156 218.292969 45.375 218.496094 45.523438 C 218.699219 45.675781 218.957031 45.75 219.277344 45.75 C 219.699219 45.75 220.058594 45.636719 220.359375 45.414062 M 221.019531 40.421875 C 221.429688 40.609375 221.75 40.871094 221.972656 41.203125 C 222.195312 41.53125 222.308594 41.910156 222.308594 42.332031 L 222.308594 46.679688 C 222.308594 46.722656 222.292969 46.757812 222.261719 46.789062 C 222.234375 46.820312 222.195312 46.835938 222.152344 46.835938 L 220.964844 46.835938 C 220.921875 46.835938 220.886719 46.820312 220.855469 46.789062 C 220.828125 46.757812 220.8125 46.722656 220.8125 46.679688 L 220.8125 46.265625 C 220.8125 46.242188 220.804688 46.226562 220.785156 46.21875 C 220.769531 46.214844 220.753906 46.222656 220.734375 46.242188 C 220.3125 46.703125 219.703125 46.9375 218.902344 46.9375 C 218.257812 46.9375 217.726562 46.773438 217.308594 46.445312 C 216.890625 46.121094 216.683594 45.632812 216.683594 44.988281 C 216.683594 44.316406 216.917969 43.796875 217.386719 43.421875 C 217.855469 43.046875 218.515625 42.859375 219.367188 42.859375 L 220.746094 42.859375 C 220.789062 42.859375 220.8125 42.835938 220.8125 42.796875 L 220.8125 42.484375 C 220.8125 42.152344 220.710938 41.890625 220.515625 41.703125 C 220.316406 41.519531 220.019531 41.429688 219.625 41.429688 C 219.296875 41.429688 219.03125 41.484375 218.832031 41.601562 C 218.628906 41.71875 218.503906 41.878906 218.449219 42.085938 C 218.425781 42.1875 218.363281 42.230469 218.269531 42.214844 L 217.019531 42.058594 C 216.976562 42.050781 216.9375 42.035156 216.910156 42.015625 C 216.878906 41.992188 216.867188 41.964844 216.875 41.929688 C 216.945312 41.40625 217.226562 40.976562 217.722656 40.640625 C 218.214844 40.304688 218.835938 40.136719 219.585938 40.136719 C 220.128906 40.136719 220.605469 40.230469 221.019531 40.421875 "/>
<path fill-rule="nonzero" fill="rgb(100%, 100%, 100%)" fill-opacity="1" d="M 228.050781 43.542969 C 228.050781 42.871094 227.921875 42.347656 227.664062 41.96875 C 227.429688 41.609375 227.085938 41.425781 226.632812 41.425781 C 226.210938 41.425781 225.886719 41.617188 225.664062 41.996094 C 225.449219 42.347656 225.339844 42.859375 225.339844 43.53125 C 225.339844 44.191406 225.441406 44.691406 225.636719 45.027344 C 225.863281 45.441406 226.195312 45.648438 226.644531 45.648438 C 226.886719 45.648438 227.101562 45.59375 227.289062 45.484375 C 227.480469 45.378906 227.628906 45.226562 227.742188 45.027344 C 227.949219 44.664062 228.050781 44.171875 228.050781 43.542969 M 229.585938 43.519531 C 229.585938 44.128906 229.503906 44.664062 229.34375 45.128906 C 229.152344 45.699219 228.847656 46.140625 228.425781 46.460938 C 228.003906 46.777344 227.488281 46.9375 226.875 46.9375 C 226.273438 46.9375 225.78125 46.710938 225.390625 46.253906 C 225.375 46.226562 225.359375 46.21875 225.339844 46.226562 C 225.324219 46.234375 225.316406 46.253906 225.316406 46.277344 L 225.316406 46.679688 C 225.316406 46.722656 225.300781 46.757812 225.269531 46.789062 C 225.242188 46.820312 225.203125 46.835938 225.160156 46.835938 L 223.972656 46.835938 C 223.929688 46.835938 223.894531 46.820312 223.863281 46.789062 C 223.832031 46.757812 223.820312 46.722656 223.820312 46.679688 L 223.820312 37.957031 C 223.820312 37.914062 223.832031 37.878906 223.863281 37.847656 C 223.894531 37.816406 223.929688 37.800781 223.972656 37.800781 L 225.160156 37.800781 C 225.203125 37.800781 225.242188 37.816406 225.269531 37.847656 C 225.300781 37.878906 225.316406 37.914062 225.316406 37.957031 L 225.316406 40.757812 C 225.316406 40.78125 225.324219 40.800781 225.339844 40.808594 C 225.359375 40.816406 225.375 40.8125 225.390625 40.796875 C 225.761719 40.355469 226.253906 40.136719 226.863281 40.136719 C 227.5 40.136719 228.027344 40.296875 228.445312 40.613281 C 228.863281 40.933594 229.167969 41.375 229.367188 41.941406 C 229.515625 42.425781 229.585938 42.949219 229.585938 43.519531 "/>
<path fill-rule="nonzero" fill="rgb(100%, 100%, 100%)" fill-opacity="1" d="M 231.140625 46.789062 C 231.109375 46.757812 231.09375 46.722656 231.09375 46.679688 L 231.09375 40.382812 C 231.09375 40.339844 231.109375 40.300781 231.140625 40.273438 C 231.171875 40.242188 231.207031 40.226562 231.25 40.226562 L 232.4375 40.226562 C 232.480469 40.226562 232.515625 40.242188 232.546875 40.273438 C 232.578125 40.300781 232.59375 40.339844 232.59375 40.382812 L 232.59375 46.679688 C 232.59375 46.722656 232.578125 46.757812 232.546875 46.789062 C 232.515625 46.820312 232.480469 46.832031 232.4375 46.832031 L 231.25 46.832031 C 231.207031 46.832031 231.171875 46.820312 231.140625 46.789062 M 231.210938 39.078125 C 231.039062 38.90625 230.953125 38.6875 230.953125 38.421875 C 230.953125 38.152344 231.039062 37.933594 231.210938 37.761719 C 231.382812 37.589844 231.601562 37.503906 231.871094 37.503906 C 232.136719 37.503906 232.355469 37.589844 232.527344 37.761719 C 232.699219 37.933594 232.785156 38.152344 232.785156 38.421875 C 232.785156 38.6875 232.699219 38.90625 232.527344 39.078125 C 232.355469 39.25 232.136719 39.335938 231.871094 39.335938 C 231.601562 39.335938 231.382812 39.25 231.210938 39.078125 "/>
<path fill-rule="nonzero" fill="rgb(100%, 100%, 100%)" fill-opacity="1" d="M 234.355469 46.789062 C 234.324219 46.757812 234.308594 46.722656 234.308594 46.679688 L 234.308594 37.957031 C 234.308594 37.914062 234.324219 37.875 234.355469 37.847656 C 234.382812 37.816406 234.421875 37.800781 234.464844 37.800781 L 235.652344 37.800781 C 235.695312 37.800781 235.730469 37.816406 235.761719 37.847656 C 235.792969 37.875 235.804688 37.914062 235.804688 37.957031 L 235.804688 46.679688 C 235.804688 46.722656 235.792969 46.757812 235.761719 46.789062 C 235.730469 46.820312 235.695312 46.832031 235.652344 46.832031 L 234.464844 46.832031 C 234.421875 46.832031 234.382812 46.820312 234.355469 46.789062 "/>
<path fill-rule="nonzero" fill="rgb(100%, 100%, 100%)" fill-opacity="1" d="M 237.515625 46.789062 C 237.484375 46.757812 237.46875 46.722656 237.46875 46.679688 L 237.46875 40.382812 C 237.46875 40.339844 237.484375 40.300781 237.515625 40.273438 C 237.546875 40.242188 237.582031 40.226562 237.625 40.226562 L 238.8125 40.226562 C 238.855469 40.226562 238.890625 40.242188 238.921875 40.273438 C 238.953125 40.300781 238.96875 40.339844 238.96875 40.382812 L 238.96875 46.679688 C 238.96875 46.722656 238.953125 46.757812 238.921875 46.789062 C 238.890625 46.820312 238.855469 46.832031 238.8125 46.832031 L 237.625 46.832031 C 237.582031 46.832031 237.546875 46.820312 237.515625 46.789062 M 237.585938 39.078125 C 237.414062 38.90625 237.328125 38.6875 237.328125 38.421875 C 237.328125 38.152344 237.414062 37.933594 237.585938 37.761719 C 237.757812 37.589844 237.976562 37.503906 238.246094 37.503906 C 238.511719 37.503906 238.730469 37.589844 238.902344 37.761719 C 239.074219 37.933594 239.160156 38.152344 239.160156 38.421875 C 239.160156 38.6875 239.074219 38.90625 238.902344 39.078125 C 238.730469 39.25 238.511719 39.335938 238.246094 39.335938 C 237.976562 39.335938 237.757812 39.25 237.585938 39.078125 "/>
<path fill-rule="nonzero" fill="rgb(100%, 100%, 100%)" fill-opacity="1" d="M 244.132812 41.40625 C 244.105469 41.4375 244.066406 41.453125 244.027344 41.453125 L 242.710938 41.453125 C 242.667969 41.453125 242.644531 41.472656 242.644531 41.519531 L 242.644531 44.628906 C 242.644531 44.953125 242.714844 45.191406 242.859375 45.335938 C 243 45.484375 243.226562 45.554688 243.535156 45.554688 L 243.921875 45.554688 C 243.964844 45.554688 244 45.570312 244.03125 45.601562 C 244.0625 45.632812 244.074219 45.667969 244.074219 45.710938 L 244.074219 46.679688 C 244.074219 46.773438 244.027344 46.828125 243.921875 46.847656 L 243.25 46.859375 C 242.570312 46.859375 242.0625 46.742188 241.726562 46.511719 C 241.390625 46.277344 241.21875 45.839844 241.210938 45.195312 L 241.210938 41.519531 C 241.210938 41.472656 241.191406 41.453125 241.148438 41.453125 L 240.410156 41.453125 C 240.367188 41.453125 240.332031 41.4375 240.300781 41.40625 C 240.273438 41.378906 240.257812 41.339844 240.257812 41.296875 L 240.257812 40.394531 C 240.257812 40.351562 240.273438 40.316406 240.300781 40.285156 C 240.332031 40.253906 240.367188 40.238281 240.410156 40.238281 L 241.148438 40.238281 C 241.191406 40.238281 241.210938 40.21875 241.210938 40.175781 L 241.210938 38.664062 C 241.210938 38.621094 241.226562 38.585938 241.257812 38.554688 C 241.289062 38.527344 241.324219 38.511719 241.367188 38.511719 L 242.488281 38.511719 C 242.53125 38.511719 242.570312 38.527344 242.597656 38.554688 C 242.628906 38.585938 242.644531 38.621094 242.644531 38.664062 L 242.644531 40.175781 C 242.644531 40.21875 242.667969 40.238281 242.710938 40.238281 L 244.027344 40.238281 C 244.066406 40.238281 244.105469 40.253906 244.132812 40.285156 C 244.164062 40.316406 244.179688 40.351562 244.179688 40.394531 L 244.179688 41.296875 C 244.179688 41.339844 244.164062 41.378906 244.132812 41.40625 "/>
<path fill-rule="nonzero" fill="rgb(100%, 100%, 100%)" fill-opacity="1" d="M 245.316406 49.355469 C 245.296875 49.324219 245.289062 49.289062 245.289062 49.246094 L 245.289062 48.316406 C 245.289062 48.273438 245.304688 48.238281 245.335938 48.207031 C 245.363281 48.175781 245.402344 48.164062 245.445312 48.164062 L 245.457031 48.164062 C 245.808594 48.152344 246.085938 48.117188 246.285156 48.054688 C 246.480469 47.988281 246.644531 47.867188 246.773438 47.683594 C 246.902344 47.503906 247.019531 47.234375 247.121094 46.871094 C 247.128906 46.855469 247.128906 46.828125 247.121094 46.796875 L 244.992188 40.40625 C 244.984375 40.390625 244.980469 40.367188 244.980469 40.34375 C 244.980469 40.265625 245.023438 40.226562 245.109375 40.226562 L 246.371094 40.226562 C 246.46875 40.226562 246.527344 40.269531 246.554688 40.355469 L 247.84375 44.898438 C 247.851562 44.921875 247.867188 44.9375 247.882812 44.9375 C 247.898438 44.9375 247.914062 44.921875 247.921875 44.898438 L 249.210938 40.355469 C 249.238281 40.269531 249.296875 40.226562 249.394531 40.226562 L 250.621094 40.226562 C 250.667969 40.226562 250.707031 40.242188 250.726562 40.273438 C 250.75 40.300781 250.75 40.347656 250.734375 40.40625 L 248.464844 47.195312 C 248.25 47.804688 248.039062 48.261719 247.832031 48.5625 C 247.625 48.863281 247.34375 49.078125 246.988281 49.207031 C 246.628906 49.335938 246.121094 49.402344 245.46875 49.402344 L 245.378906 49.402344 C 245.355469 49.402344 245.332031 49.386719 245.316406 49.355469 "/>
<path fill-rule="nonzero" fill="rgb(100%, 100%, 100%)" fill-opacity="1" d="M 126.964844 60.898438 C 127.265625 60.675781 127.417969 60.390625 127.417969 60.046875 L 127.417969 59.441406 C 127.417969 59.398438 127.394531 59.375 127.351562 59.375 L 126.269531 59.375 C 125.8125 59.375 125.453125 59.460938 125.191406 59.632812 C 124.929688 59.804688 124.796875 60.050781 124.796875 60.371094 C 124.796875 60.644531 124.898438 60.859375 125.101562 61.007812 C 125.300781 61.160156 125.5625 61.234375 125.882812 61.234375 C 126.304688 61.234375 126.664062 61.121094 126.964844 60.898438 M 127.625 55.90625 C 128.039062 56.09375 128.355469 56.355469 128.578125 56.6875 C 128.800781 57.015625 128.914062 57.394531 128.914062 57.816406 L 128.914062 62.164062 C 128.914062 62.207031 128.898438 62.242188 128.867188 62.273438 C 128.839844 62.304688 128.800781 62.320312 128.757812 62.320312 L 127.570312 62.320312 C 127.527344 62.320312 127.492188 62.304688 127.460938 62.273438 C 127.433594 62.242188 127.417969 62.207031 127.417969 62.164062 L 127.417969 61.75 C 127.417969 61.726562 127.410156 61.710938 127.390625 61.703125 C 127.375 61.703125 127.355469 61.707031 127.339844 61.726562 C 126.917969 62.191406 126.308594 62.421875 125.507812 62.421875 C 124.863281 62.421875 124.332031 62.257812 123.914062 61.929688 C 123.496094 61.605469 123.289062 61.117188 123.289062 60.472656 C 123.289062 59.800781 123.523438 59.277344 123.992188 58.90625 C 124.460938 58.53125 125.121094 58.34375 125.972656 58.34375 L 127.351562 58.34375 C 127.394531 58.34375 127.417969 58.320312 127.417969 58.28125 L 127.417969 57.96875 C 127.417969 57.632812 127.320312 57.375 127.121094 57.191406 C 126.921875 57.003906 126.625 56.914062 126.230469 56.914062 C 125.902344 56.914062 125.640625 56.96875 125.4375 57.085938 C 125.234375 57.203125 125.105469 57.363281 125.054688 57.570312 C 125.03125 57.671875 124.96875 57.714844 124.875 57.699219 L 123.625 57.542969 C 123.582031 57.535156 123.542969 57.519531 123.515625 57.5 C 123.484375 57.476562 123.472656 57.449219 123.480469 57.414062 C 123.550781 56.890625 123.832031 56.460938 124.328125 56.125 C 124.820312 55.789062 125.441406 55.621094 126.191406 55.621094 C 126.734375 55.621094 127.210938 55.714844 127.625 55.90625 "/>
<path fill-rule="nonzero" fill="rgb(100%, 100%, 100%)" fill-opacity="1" d="M 135.242188 56.242188 C 135.660156 56.652344 135.867188 57.214844 135.867188 57.929688 L 135.867188 62.164062 C 135.867188 62.207031 135.855469 62.242188 135.824219 62.273438 C 135.792969 62.304688 135.757812 62.320312 135.714844 62.320312 L 134.527344 62.320312 C 134.484375 62.320312 134.449219 62.304688 134.417969 62.273438 C 134.386719 62.242188 134.371094 62.207031 134.371094 62.164062 L 134.371094 58.242188 C 134.371094 57.84375 134.261719 57.523438 134.035156 57.28125 C 133.8125 57.035156 133.515625 56.910156 133.144531 56.910156 C 132.777344 56.910156 132.476562 57.03125 132.25 57.273438 C 132.023438 57.515625 131.90625 57.832031 131.90625 58.226562 L 131.90625 62.164062 C 131.90625 62.207031 131.894531 62.242188 131.863281 62.273438 C 131.832031 62.304688 131.796875 62.320312 131.753906 62.320312 L 130.566406 62.320312 C 130.523438 62.320312 130.484375 62.304688 130.457031 62.273438 C 130.425781 62.242188 130.410156 62.207031 130.410156 62.164062 L 130.410156 55.878906 C 130.410156 55.835938 130.425781 55.800781 130.457031 55.769531 C 130.484375 55.738281 130.523438 55.722656 130.566406 55.722656 L 131.753906 55.722656 C 131.796875 55.722656 131.832031 55.738281 131.863281 55.769531 C 131.894531 55.800781 131.90625 55.835938 131.90625 55.878906 L 131.90625 56.292969 C 131.90625 56.316406 131.917969 56.335938 131.933594 56.34375 C 131.949219 56.351562 131.964844 56.34375 131.972656 56.316406 C 132.324219 55.851562 132.859375 55.621094 133.570312 55.621094 C 134.269531 55.621094 134.824219 55.828125 135.242188 56.242188 "/>
<path fill-rule="nonzero" fill="rgb(100%, 100%, 100%)" fill-opacity="1" d="M 141.457031 59.015625 C 141.457031 58.34375 141.347656 57.832031 141.132812 57.480469 C 140.902344 57.101562 140.574219 56.910156 140.152344 56.910156 C 139.714844 56.910156 139.371094 57.09375 139.121094 57.453125 C 138.863281 57.832031 138.734375 58.355469 138.734375 59.027344 C 138.734375 59.628906 138.835938 60.125 139.042969 60.511719 C 139.285156 60.925781 139.648438 61.132812 140.140625 61.132812 C 140.578125 61.132812 140.917969 60.925781 141.160156 60.511719 C 141.355469 60.160156 141.457031 59.660156 141.457031 59.015625 M 141.515625 53.332031 C 141.542969 53.300781 141.582031 53.285156 141.625 53.285156 L 142.8125 53.285156 C 142.851562 53.285156 142.890625 53.300781 142.921875 53.332031 C 142.949219 53.359375 142.964844 53.398438 142.964844 53.441406 L 142.964844 62.164062 C 142.964844 62.207031 142.949219 62.242188 142.921875 62.273438 C 142.890625 62.304688 142.851562 62.316406 142.8125 62.316406 L 141.625 62.316406 C 141.582031 62.316406 141.542969 62.304688 141.515625 62.273438 C 141.484375 62.242188 141.46875 62.207031 141.46875 62.164062 L 141.46875 61.777344 C 141.46875 61.75 141.460938 61.734375 141.445312 61.722656 C 141.425781 61.714844 141.410156 61.722656 141.390625 61.75 C 141.011719 62.199219 140.519531 62.421875 139.90625 62.421875 C 139.296875 62.421875 138.78125 62.261719 138.359375 61.945312 C 137.9375 61.625 137.632812 61.183594 137.441406 60.613281 C 137.289062 60.132812 137.210938 59.59375 137.210938 59 C 137.210938 58.390625 137.285156 57.867188 137.429688 57.425781 C 137.621094 56.859375 137.925781 56.417969 138.347656 56.097656 C 138.765625 55.78125 139.296875 55.621094 139.933594 55.621094 C 140.527344 55.621094 141.011719 55.835938 141.390625 56.265625 C 141.410156 56.285156 141.425781 56.289062 141.445312 56.285156 C 141.460938 56.28125 141.46875 56.265625 141.46875 56.242188 L 141.46875 53.441406 C 141.46875 53.398438 141.484375 53.359375 141.515625 53.332031 "/>
<path fill-rule="nonzero" fill="rgb(100%, 100%, 100%)" fill-opacity="1" d="M 153.359375 53.332031 C 153.390625 53.359375 153.40625 53.398438 153.40625 53.441406 L 153.40625 54.433594 C 153.40625 54.476562 153.390625 54.511719 153.359375 54.542969 C 153.328125 54.574219 153.292969 54.589844 153.25 54.589844 L 150.875 54.589844 C 150.832031 54.589844 150.8125 54.609375 150.8125 54.652344 L 150.8125 62.164062 C 150.8125 62.207031 150.796875 62.242188 150.765625 62.273438 C 150.738281 62.304688 150.699219 62.316406 150.65625 62.316406 L 149.46875 62.316406 C 149.425781 62.316406 149.390625 62.304688 149.359375 62.273438 C 149.328125 62.242188 149.316406 62.207031 149.316406 62.164062 L 149.316406 54.652344 C 149.316406 54.609375 149.292969 54.589844 149.25 54.589844 L 146.964844 54.589844 C 146.921875 54.589844 146.886719 54.574219 146.855469 54.542969 C 146.824219 54.511719 146.8125 54.476562 146.8125 54.433594 L 146.8125 53.441406 C 146.8125 53.398438 146.824219 53.359375 146.855469 53.332031 C 146.886719 53.300781 146.921875 53.285156 146.964844 53.285156 L 153.25 53.285156 C 153.292969 53.285156 153.328125 53.300781 153.359375 53.332031 "/>
<path fill-rule="nonzero" fill="rgb(100%, 100%, 100%)" fill-opacity="1" d="M 157.714844 55.816406 C 157.78125 55.847656 157.808594 55.914062 157.792969 56.007812 L 157.574219 57.171875 C 157.5625 57.273438 157.503906 57.304688 157.390625 57.261719 C 157.261719 57.214844 157.113281 57.195312 156.941406 57.195312 C 156.828125 57.195312 156.742188 57.199219 156.683594 57.207031 C 156.320312 57.226562 156.019531 57.351562 155.777344 57.589844 C 155.539062 57.824219 155.417969 58.132812 155.417969 58.511719 L 155.417969 62.164062 C 155.417969 62.207031 155.402344 62.242188 155.375 62.273438 C 155.339844 62.304688 155.304688 62.320312 155.261719 62.320312 L 154.074219 62.320312 C 154.03125 62.320312 153.996094 62.304688 153.964844 62.273438 C 153.9375 62.242188 153.921875 62.207031 153.921875 62.164062 L 153.921875 55.878906 C 153.921875 55.835938 153.9375 55.800781 153.964844 55.769531 C 153.996094 55.742188 154.03125 55.722656 154.074219 55.722656 L 155.261719 55.722656 C 155.304688 55.722656 155.339844 55.742188 155.375 55.769531 C 155.402344 55.800781 155.417969 55.835938 155.417969 55.878906 L 155.417969 56.460938 C 155.417969 56.496094 155.421875 56.515625 155.4375 56.519531 C 155.449219 56.523438 155.464844 56.511719 155.480469 56.484375 C 155.84375 55.925781 156.347656 55.648438 156.992188 55.648438 C 157.265625 55.648438 157.507812 55.703125 157.714844 55.816406 "/>
<path fill-rule="nonzero" fill="rgb(100%, 100%, 100%)" fill-opacity="1" d="M 162.714844 55.769531 C 162.746094 55.742188 162.78125 55.722656 162.824219 55.722656 L 164 55.722656 C 164.042969 55.722656 164.078125 55.742188 164.109375 55.769531 C 164.140625 55.800781 164.152344 55.835938 164.152344 55.878906 L 164.152344 62.164062 C 164.152344 62.207031 164.140625 62.242188 164.109375 62.273438 C 164.078125 62.304688 164.042969 62.316406 164 62.316406 L 162.824219 62.316406 C 162.78125 62.316406 162.746094 62.304688 162.714844 62.273438 C 162.683594 62.242188 162.667969 62.207031 162.667969 62.164062 L 162.667969 61.75 C 162.667969 61.726562 162.660156 61.707031 162.644531 61.699219 C 162.625 61.691406 162.609375 61.699219 162.59375 61.726562 C 162.238281 62.179688 161.710938 62.40625 161.003906 62.40625 C 160.351562 62.40625 159.800781 62.21875 159.359375 61.839844 C 158.917969 61.460938 158.695312 60.925781 158.695312 60.226562 L 158.695312 55.878906 C 158.695312 55.835938 158.710938 55.800781 158.738281 55.769531 C 158.769531 55.742188 158.808594 55.722656 158.851562 55.722656 L 160.035156 55.722656 C 160.082031 55.722656 160.117188 55.742188 160.148438 55.769531 C 160.175781 55.800781 160.191406 55.835938 160.191406 55.878906 L 160.191406 59.800781 C 160.191406 60.207031 160.296875 60.527344 160.507812 60.769531 C 160.71875 61.011719 161.011719 61.132812 161.390625 61.132812 C 161.777344 61.132812 162.089844 61.011719 162.320312 60.769531 C 162.554688 60.527344 162.667969 60.207031 162.667969 59.800781 L 162.667969 55.878906 C 162.667969 55.835938 162.683594 55.800781 162.714844 55.769531 "/>
<path fill-rule="nonzero" fill="rgb(100%, 100%, 100%)" fill-opacity="1" d="M 166.78125 62.15625 C 166.371094 61.996094 166.054688 61.777344 165.832031 61.5 C 165.605469 61.21875 165.496094 60.90625 165.496094 60.5625 L 165.496094 60.449219 C 165.496094 60.402344 165.511719 60.367188 165.539062 60.335938 C 165.570312 60.308594 165.605469 60.292969 165.648438 60.292969 L 166.785156 60.292969 C 166.828125 60.292969 166.863281 60.308594 166.894531 60.335938 C 166.925781 60.367188 166.941406 60.402344 166.941406 60.449219 L 166.941406 60.472656 C 166.941406 60.6875 167.058594 60.875 167.296875 61.035156 C 167.53125 61.191406 167.832031 61.273438 168.191406 61.273438 C 168.535156 61.273438 168.816406 61.203125 169.03125 61.0625 C 169.246094 60.917969 169.355469 60.738281 169.355469 60.523438 C 169.355469 60.328125 169.265625 60.179688 169.089844 60.078125 C 168.914062 59.980469 168.625 59.875 168.230469 59.761719 L 167.742188 59.609375 C 167.300781 59.480469 166.929688 59.34375 166.632812 59.195312 C 166.328125 59.050781 166.074219 58.847656 165.871094 58.59375 C 165.664062 58.339844 165.558594 58.015625 165.558594 57.621094 C 165.558594 57.019531 165.796875 56.539062 166.269531 56.183594 C 166.742188 55.824219 167.367188 55.648438 168.140625 55.648438 C 168.664062 55.648438 169.125 55.730469 169.523438 55.898438 C 169.917969 56.066406 170.222656 56.300781 170.4375 56.59375 C 170.652344 56.890625 170.761719 57.230469 170.761719 57.609375 C 170.761719 57.652344 170.746094 57.6875 170.714844 57.71875 C 170.683594 57.75 170.648438 57.761719 170.605469 57.761719 L 169.507812 57.761719 C 169.464844 57.761719 169.429688 57.75 169.398438 57.71875 C 169.367188 57.6875 169.355469 57.652344 169.355469 57.609375 C 169.355469 57.386719 169.242188 57.199219 169.023438 57.046875 C 168.804688 56.898438 168.503906 56.820312 168.128906 56.820312 C 167.792969 56.820312 167.519531 56.882812 167.308594 57.007812 C 167.097656 57.132812 166.992188 57.308594 166.992188 57.53125 C 166.992188 57.738281 167.09375 57.894531 167.296875 58.003906 C 167.5 58.109375 167.835938 58.226562 168.308594 58.355469 L 168.59375 58.433594 C 169.046875 58.574219 169.429688 58.710938 169.738281 58.855469 C 170.050781 58.996094 170.3125 59.195312 170.527344 59.449219 C 170.742188 59.699219 170.851562 60.03125 170.851562 60.433594 C 170.851562 61.046875 170.609375 61.523438 170.128906 61.875 C 169.644531 62.222656 169.003906 62.394531 168.203125 62.394531 C 167.664062 62.394531 167.1875 62.316406 166.78125 62.15625 "/>
<path fill-rule="nonzero" fill="rgb(100%, 100%, 100%)" fill-opacity="1" d="M 175.554688 56.890625 C 175.523438 56.921875 175.488281 56.9375 175.445312 56.9375 L 174.128906 56.9375 C 174.085938 56.9375 174.0625 56.957031 174.0625 57 L 174.0625 60.113281 C 174.0625 60.4375 174.132812 60.675781 174.277344 60.820312 C 174.417969 60.96875 174.644531 61.042969 174.953125 61.042969 L 175.339844 61.042969 C 175.382812 61.042969 175.417969 61.054688 175.449219 61.085938 C 175.480469 61.117188 175.496094 61.152344 175.496094 61.195312 L 175.496094 62.164062 C 175.496094 62.257812 175.445312 62.316406 175.339844 62.332031 L 174.667969 62.34375 C 173.988281 62.34375 173.480469 62.226562 173.148438 61.996094 C 172.808594 61.761719 172.640625 61.324219 172.632812 60.679688 L 172.632812 57 C 172.632812 56.957031 172.609375 56.9375 172.566406 56.9375 L 171.828125 56.9375 C 171.789062 56.9375 171.75 56.921875 171.722656 56.890625 C 171.691406 56.863281 171.675781 56.824219 171.675781 56.785156 L 171.675781 55.878906 C 171.675781 55.835938 171.691406 55.800781 171.722656 55.769531 C 171.75 55.738281 171.789062 55.722656 171.828125 55.722656 L 172.566406 55.722656 C 172.609375 55.722656 172.632812 55.703125 172.632812 55.660156 L 172.632812 54.148438 C 172.632812 54.105469 172.644531 54.070312 172.675781 54.039062 C 172.707031 54.011719 172.742188 53.996094 172.785156 53.996094 L 173.90625 53.996094 C 173.949219 53.996094 173.988281 54.011719 174.015625 54.039062 C 174.046875 54.070312 174.0625 54.105469 174.0625 54.148438 L 174.0625 55.660156 C 174.0625 55.703125 174.085938 55.722656 174.128906 55.722656 L 175.445312 55.722656 C 175.488281 55.722656 175.523438 55.738281 175.554688 55.769531 C 175.582031 55.800781 175.597656 55.835938 175.597656 55.878906 L 175.597656 56.785156 C 175.597656 56.824219 175.582031 56.863281 175.554688 56.890625 "/>
</svg>
